<?xml version="1.0" encoding="UTF-8"?>
<svg xmlns="http://www.w3.org/2000/svg" width="2560" height="1300" xmlns:xlink="http://www.w3.org/1999/xlink" viewBox="0 0 2560 1300">
  <defs>
    <clipPath id="d">
      <rect width="2560" height="1300" fill="none"/>
    </clipPath>
    <linearGradient id="e" data-name="未命名漸層 87" x1="815.8" y1="1193.6" x2="830.5" y2="1901.7" gradientUnits="userSpaceOnUse">
      <stop offset="0" stop-color="#bdbdbd"/>
      <stop offset=".7" stop-color="#696969"/>
      <stop offset="1" stop-color="#474747"/>
    </linearGradient>
    <linearGradient id="f" data-name="未命名漸層 87" x1="815.8" y1="1083" x2="830.5" y2="1791.1" xlink:href="#e"/>
    <linearGradient id="g" data-name="未命名漸層 90" x1="1687.5" y1="1332.9" x2="3361" y2="1332.9" gradientUnits="userSpaceOnUse">
      <stop offset="0" stop-color="#bdbdbd" stop-opacity=".4"/>
      <stop offset=".3" stop-color="#9d9d9d" stop-opacity=".4"/>
      <stop offset="1" stop-color="#474747" stop-opacity=".4"/>
    </linearGradient>
    <linearGradient id="h" data-name="未命名漸層 90" x1="1855.2" y1="1389.6" x2="3528.7" y2="1389.6" xlink:href="#g"/>
    <linearGradient id="i" data-name="未命名漸層 95" x1="-824.1" y1="1448.6" x2="849.4" y2="1448.6" gradientUnits="userSpaceOnUse">
      <stop offset="0" stop-color="#2e2e2e" stop-opacity=".4"/>
      <stop offset=".6" stop-color="#848484" stop-opacity=".4"/>
      <stop offset="1" stop-color="#bdbdbd" stop-opacity=".4"/>
    </linearGradient>
    <linearGradient id="j" data-name="未命名漸層 95" x1="-1036.9" y1="1577.6" x2="636.6" y2="1577.6" xlink:href="#i"/>
    <linearGradient id="k" data-name="未命名漸層 87" x1="1805.4" y1="595.7" x2="1824.7" y2="1088.2" gradientTransform="translate(237.7 732) rotate(-7.2)" xlink:href="#e"/>
    <clipPath id="l">
      <circle cx="1631.8" cy="729.1" r="184.2" transform="translate(-37.6 1367.4) rotate(-45)" fill="none"/>
    </clipPath>
    <clipPath id="m">
      <circle cx="51.4" cy="808.7" r="170.7" transform="translate(-556.8 273.2) rotate(-45)" fill="none"/>
    </clipPath>
    <clipPath id="n">
      <circle cx="2360.1" cy="1167.8" r="251.5" transform="translate(-134.5 2010.8) rotate(-45)" fill="none"/>
    </clipPath>
    <clipPath id="o">
      <circle cx="351.9" cy="1487" r="321.1" transform="translate(-948.4 684.4) rotate(-45)" fill="none"/>
    </clipPath>
    <clipPath id="p">
      <circle cx="1701" cy="1264.4" r="224.8" transform="translate(-395.8 1573.1) rotate(-45)" fill="none"/>
    </clipPath>
    <clipPath id="q">
      <circle cx="2645.7" cy="711.6" r="224.8" transform="translate(271.7 2079.2) rotate(-45)" fill="none"/>
    </clipPath>
    <clipPath id="r">
      <circle cx="917.5" cy="1144.5" r="224.8" transform="translate(-540.6 984) rotate(-45)" fill="none"/>
    </clipPath>
  </defs>
  <g isolation="isolate">
    <g id="b" data-name="圖層 2">
      <g id="c" data-name="Layer 1">
        <g opacity=".2">
          <g clip-path="url(#d)">
            <path d="m2622.4,537.2c-126.2-73-334.9-85.8-464.1-18.3-129.2,67.5-178.5,212.8-190.6,293.4-9,60.1,2.7,61.1-6.6,121.2-9.3,60.1-40.8,122.3-97.6,144.1-52.9,20.3-113,.4-161.5-28.8-48.5-29.3-91.7-67.9-143.8-90.1-112-47.5-255.6-.8-318.2,103.5-31.8,53-46.9,120.5-98.4,154.7-50.1,33.3-118.5,22.3-172.2-5-53.7-27.3-99.1-68.5-152.1-97.1-102.4-55.3-231.4-58-336-7.2-104.6,50.8-182.2,153.9-202.1,268.5l-6.5,168.2,2298.6,89.2,51.2-1096.3Z" fill="#6b6b6b" mix-blend-mode="overlay"/>
            <path d="m44.6,1260.3c-104.8,96.5-191.6,228.6-181.9,370.7,9.8,142.1,153.1,275.9,288.9,233,134.4-42.4,210.5-227.8,350.9-216.3,89.3,7.3,149,93.9,229,134.2,100.7,50.6,236.5,15.1,299.4-78.4,29.8-44.2,47.7-101.8,95.7-124.9,47.3-22.9,104.8-1.3,146.2,31.1,41.4,32.4,74.2,75.3,118.3,103.9,129.2,84.2,324.1,2.4,376.4-142.7,52.2-145.1-25.3-317.2-156.9-397.6-131.6-80.4-302.6-77.9-445.6-19.9-89.3,36.2-171.9,92.8-267.1,107.6-168.8,26.1-327.5-84.1-496.8-107.2-140.2-19.1-278.4,34.6-356.6,106.6" fill="url(#e)" opacity=".4"/>
            <path d="m44.6,1149.7c-104.8,96.5-191.6,228.6-181.9,370.7,9.8,142.1,153.1,275.9,288.9,233,134.4-42.4,210.5-227.8,350.9-216.3,89.3,7.3,149,93.9,229,134.2,100.7,50.6,236.5,15.1,299.4-78.4,29.8-44.2,47.7-101.8,95.7-124.9,47.3-22.9,104.8-1.3,146.2,31.1,41.4,32.4,74.2,75.3,118.3,103.9,129.2,84.2,324.1,2.4,376.4-142.7,52.2-145.1-25.3-317.2-156.9-397.6-131.6-80.4-302.6-77.9-445.6-19.9-89.3,36.2-171.9,92.8-267.1,107.6-168.8,26.1-327.5-84.1-496.8-107.2-140.2-19.1-278.4,34.6-356.6,106.6" fill="url(#f)" opacity=".4"/>
            <path d="m2210.9,598.8c-93.7,43.5-130.7,177.2-72.7,262.6,15.7,23.1,38.2,48.6,29.2,75.1-4.6,13.7-16.7,23.2-28.5,31.7-148.2,107-334.4,177.7-426.8,335.4-24.4,41.6-41.8,91.6,3,140.5,21.7,23.8,51.9,38.2,83.8,43,75.6,11.4,147.1-20.7,221.4-28,.6,0,1.3-.1,1.9-.2,87.7-7.9,135.2,101.2,71.6,162.2l-61.3,58.8c-65.8,63.1-133.4,128.6-155,221.5-9.3,40-7.1,82.6,10.6,119.6,63.2,132.9,246.5,100.8,346,10.5,91.5-83.1,147.1-200.7,241.8-280.2,29.4-24.7,63.7-45.8,101.9-50.2,66.1-7.6,126.1,35.1,180.7,73.1,113.6,79.3,242.1,149.9,385.1,130.9,68.9-9.2,133.7-42.3,174.9-98.3,112.7-153.1-20.1-343.4-158.8-415.1-47.3-24.5-80-71.9-85.3-124.9-11.3-113.3,105.2-134.3,177.3-190.4,73.8-57.4,101.7-166.6,64.6-252.4-37.1-85.8-135.8-140.2-228.2-125.8-63.3,9.9-118.3,47.4-177,73.1-58.7,25.7-131.5,38.3-183.6,1-33.6-24.1-51.4-63.8-74.7-97.9-102.7-150.3-311.2-136.2-442-75.5" fill="url(#g)"/>
            <path d="m2378.7,655.5c-93.7,43.5-130.7,177.2-72.7,262.6,15.7,23.1,38.2,48.6,29.2,75.1-4.6,13.7-16.7,23.2-28.5,31.7-148.2,107-334.4,177.7-426.8,335.4-24.4,41.6-41.8,91.6,3,140.5,21.7,23.8,51.9,38.2,83.8,43,75.6,11.4,147.1-20.7,221.4-28,.6,0,1.3-.1,1.9-.2,87.7-7.9,135.2,101.2,71.6,162.2l-61.3,58.8c-65.8,63.1-133.4,128.6-155,221.5-9.3,40-7.1,82.6,10.6,119.6,63.2,132.9,246.5,100.8,346,10.5,91.5-83.1,147.1-200.7,241.8-280.2,29.4-24.7,63.7-45.8,101.9-50.2,66.1-7.6,126.1,35.1,180.7,73.1,113.6,79.3,242.1,149.9,385.1,130.9,68.9-9.2,133.7-42.3,174.9-98.3,112.7-153.1-20.1-343.4-158.8-415.1-47.3-24.5-80-71.9-85.3-124.9-11.3-113.3,105.2-134.3,177.3-190.4,73.8-57.4,101.7-166.6,64.6-252.4-37.1-85.8-135.8-140.2-228.2-125.8-63.3,9.9-118.3,47.4-177,73.1-58.7,25.7-131.5,38.3-183.6,1-33.6-24.1-51.4-63.8-74.7-97.9-102.7-150.3-311.2-136.2-442-75.5" fill="url(#h)" mix-blend-mode="screen" opacity=".2"/>
            <path d="m-300.6,714.5c-93.7,43.5-130.7,177.2-72.7,262.6,15.7,23.1,38.2,48.6,29.2,75.1-4.6,13.7-16.7,23.2-28.5,31.7-148.2,107-334.4,177.7-426.8,335.4-24.4,41.6-41.8,91.6,3,140.5,21.7,23.8,51.9,38.2,83.8,43,75.6,11.4,147.1-20.7,221.4-28,.6,0,1.3-.1,1.9-.2,87.7-7.9,135.2,101.2,71.6,162.2l-61.3,58.8c-65.8,63.1-133.4,128.6-155,221.5-9.3,40-7.1,82.6,10.6,119.6,63.2,132.9,246.5,100.8,346,10.5,91.5-83.1,147.1-200.7,241.8-280.2,29.4-24.7,63.7-45.8,101.9-50.2,66.1-7.6,126.1,35.1,180.7,73.1,113.6,79.3,242.1,149.9,385.1,130.9,68.9-9.2,133.7-42.3,174.9-98.3,112.7-153.1-20.1-343.4-158.8-415.1-47.3-24.5-80-71.9-85.3-124.9-11.3-113.3,105.2-134.3,177.3-190.4,73.8-57.4,101.7-166.6,64.6-252.4-37.1-85.8-135.8-140.2-228.2-125.8-63.3,9.9-118.3,47.4-177,73.1-58.7,25.7-131.5,38.3-183.6,1-33.6-24.1-51.4-63.8-74.7-97.9-102.7-150.3-311.2-136.2-442-75.5" fill="url(#i)"/>
            <path d="m-513.4,843.6c-93.7,43.5-130.7,177.2-72.7,262.6,15.7,23.1,38.2,48.6,29.2,75.1-4.6,13.7-16.7,23.2-28.5,31.7-148.2,107-334.4,177.7-426.8,335.4-24.4,41.6-41.8,91.6,3,140.5,21.7,23.8,51.9,38.2,83.8,43,75.6,11.4,147.1-20.7,221.4-28,.6,0,1.3-.1,1.9-.2,87.7-7.9,135.2,101.2,71.6,162.2l-61.3,58.8c-65.8,63.1-133.4,128.6-155,221.5-9.3,40-7.1,82.6,10.6,119.6,63.2,132.9,246.5,100.8,346,10.5,91.5-83.1,147.1-200.7,241.8-280.2,29.4-24.7,63.7-45.8,101.9-50.2,66.1-7.6,126.1,35.1,180.7,73.1,113.6,79.3,242.1,149.9,385.1,130.9,68.9-9.2,133.7-42.3,174.9-98.3,112.7-153.1-20.1-343.4-158.8-415.1-47.3-24.5-80-71.9-85.3-124.9-11.3-113.3,105.2-134.3,177.3-190.4,73.8-57.4,101.7-166.6,64.6-252.4-37.1-85.8-135.8-140.2-228.2-125.8-63.3,9.9-118.3,47.4-177,73.1-58.7,25.7-131.5,38.3-183.6,1-33.6-24.1-51.4-63.8-74.7-97.9-102.7-150.3-311.2-136.2-442-75.5" fill="url(#j)" mix-blend-mode="screen" opacity=".2"/>
            <path d="m1606.1,1448.9c8.7,38.3,6.6,78.2-4.2,116-12.9,44.8-19.2,93.3,9.9,124.1,51.3,54.5,133.6,64.3,208.4,63.6,67.3-.6,139.9-9.3,189.6-54.7,34.1-31.2,52.8-75.6,81.6-111.7,44.5-55.6,114.6-89.9,185.8-90.8,74.8-1,146.5,32.5,221.3,33.8,86.2,1.5,173.3-44.8,214.5-120.6,41.1-75.8,30.5-178.2-30.1-239.6-60-60.7-153.8-73.9-238.7-65.2-67.4,7-133.5,25.7-194.6,55-37.2,17.9-73.9,40.1-115.1,43.6-74.7,6.3-138.8-49.5-209.5-74.4-131.9-46.4-294.3,34.2-337,167.3-7.2,22.4-11.3,46.1-7.9,69.3,4,27.1,17.9,51.8,24.8,78.3.5,1.9.9,3.9,1.4,5.8" fill="url(#k)" opacity=".4"/>
            <g mix-blend-mode="screen" opacity=".1">
              <g clip-path="url(#l)">
                <g>
                  <rect x="1607.9" y="22.6" width="7.3" height="893.6" transform="translate(803.9 -1002) rotate(45)" fill="#fff"/>
                  <rect x="1607.9" y="57.4" width="7.3" height="893.6" transform="translate(828.5 -991.8) rotate(45)" fill="#fff"/>
                  <rect x="1607.9" y="92.2" width="7.3" height="893.6" transform="translate(853.2 -981.6) rotate(45)" fill="#fff"/>
                  <rect x="1607.9" y="127" width="7.3" height="893.6" transform="translate(877.8 -971.4) rotate(45)" fill="#fff"/>
                  <rect x="1607.9" y="161.9" width="7.3" height="893.6" transform="translate(902.4 -961.2) rotate(45)" fill="#fff"/>
                  <rect x="1607.9" y="196.7" width="7.3" height="893.6" transform="translate(926.9 -951) rotate(45)" fill="#fff"/>
                  <rect x="1607.9" y="231.5" width="7.3" height="893.6" transform="translate(951.6 -940.8) rotate(45)" fill="#fff"/>
                  <rect x="1607.9" y="266.3" width="7.3" height="893.6" transform="translate(976.2 -930.6) rotate(45)" fill="#fff"/>
                  <rect x="1607.9" y="301.1" width="7.3" height="893.6" transform="translate(1000.8 -920.4) rotate(45)" fill="#fff"/>
                  <rect x="1607.9" y="335.9" width="7.3" height="893.6" transform="translate(1025.5 -910.2) rotate(45)" fill="#fff"/>
                  <rect x="1607.9" y="370.8" width="7.3" height="893.6" transform="translate(1050.1 -900) rotate(45)" fill="#fff"/>
                  <rect x="1607.9" y="405.6" width="7.3" height="893.6" transform="translate(1074.8 -889.8) rotate(45)" fill="#fff"/>
                  <rect x="1607.9" y="440.4" width="7.3" height="893.6" transform="translate(1099.4 -879.7) rotate(45)" fill="#fff"/>
                  <rect x="1607.9" y="475.2" width="7.3" height="893.6" transform="translate(1123.9 -869.4) rotate(45)" fill="#fff"/>
                  <rect x="1607.9" y="510" width="7.3" height="893.6" transform="translate(1148.6 -859.2) rotate(45)" fill="#fff"/>
                  <rect x="1607.9" y="544.8" width="7.3" height="893.6" transform="translate(1173.2 -849) rotate(45)" fill="#fff"/>
                  <rect x="1607.9" y="579.7" width="7.3" height="893.6" transform="translate(1197.8 -838.8) rotate(45)" fill="#fff"/>
                </g>
              </g>
            </g>
            <g mix-blend-mode="screen" opacity=".1">
              <g clip-path="url(#m)">
                <g>
                  <rect x="29.2" y="154.2" width="6.7" height="827.9" transform="translate(411.3 143.4) rotate(45)" fill="#fff"/>
                  <rect x="29.2" y="186.5" width="6.7" height="827.9" transform="translate(434.1 152.8) rotate(45)" fill="#fff"/>
                  <rect x="29.2" y="218.7" width="6.7" height="827.9" transform="translate(456.9 162.3) rotate(45)" fill="#fff"/>
                  <rect x="29.2" y="251" width="6.7" height="827.9" transform="translate(479.7 171.7) rotate(45)" fill="#fff"/>
                  <rect x="29.2" y="283.2" width="6.7" height="827.9" transform="translate(502.5 181.2) rotate(45)" fill="#fff"/>
                  <rect x="29.2" y="315.5" width="6.7" height="827.9" transform="translate(525.3 190.6) rotate(45)" fill="#fff"/>
                  <rect x="29.2" y="347.8" width="6.7" height="827.9" transform="translate(548.1 200.1) rotate(45)" fill="#fff"/>
                  <rect x="29.2" y="380" width="6.7" height="827.9" transform="translate(570.9 209.5) rotate(45)" fill="#fff"/>
                  <rect x="29.2" y="412.3" width="6.7" height="827.9" transform="translate(593.7 219) rotate(45)" fill="#fff"/>
                  <rect x="29.2" y="444.5" width="6.7" height="827.9" transform="translate(616.5 228.4) rotate(45)" fill="#fff"/>
                  <rect x="29.2" y="476.8" width="6.7" height="827.9" transform="translate(639.3 237.8) rotate(45)" fill="#fff"/>
                  <rect x="29.2" y="509" width="6.7" height="827.9" transform="translate(662.1 247.3) rotate(45)" fill="#fff"/>
                  <rect x="29.2" y="541.3" width="6.7" height="827.9" transform="translate(685 256.8) rotate(45)" fill="#fff"/>
                  <rect x="29.2" y="573.5" width="6.7" height="827.9" transform="translate(707.8 266.2) rotate(45)" fill="#fff"/>
                  <rect x="29.2" y="605.8" width="6.7" height="827.9" transform="translate(730.6 275.6) rotate(45)" fill="#fff"/>
                  <rect x="29.2" y="638" width="6.7" height="827.9" transform="translate(753.4 285.1) rotate(45)" fill="#fff"/>
                  <rect x="29.2" y="670.3" width="6.7" height="827.9" transform="translate(776.2 294.5) rotate(45)" fill="#fff"/>
                </g>
              </g>
            </g>
            <g mix-blend-mode="screen" opacity=".1">
              <g clip-path="url(#n)">
                <g>
                  <rect x="2327.4" y="203.2" width="9.9" height="1220" transform="translate(1258.1 -1411) rotate(45)" fill="#fff"/>
                  <rect x="2327.4" y="250.7" width="9.9" height="1220" transform="translate(1291.7 -1397.1) rotate(45)" fill="#fff"/>
                  <rect x="2327.4" y="298.3" width="9.9" height="1220" transform="translate(1325.4 -1383.2) rotate(45)" fill="#fff"/>
                  <rect x="2327.4" y="345.8" width="9.9" height="1220" transform="translate(1359 -1369.2) rotate(45)" fill="#fff"/>
                  <rect x="2327.4" y="393.3" width="9.9" height="1220" transform="translate(1392.6 -1355.3) rotate(45)" fill="#fff"/>
                  <rect x="2327.4" y="440.9" width="9.9" height="1220" transform="translate(1426.1 -1341.4) rotate(45)" fill="#fff"/>
                  <rect x="2327.4" y="488.4" width="9.9" height="1220" transform="translate(1459.7 -1327.4) rotate(45)" fill="#fff"/>
                  <rect x="2327.4" y="535.9" width="9.9" height="1220" transform="translate(1493.3 -1313.5) rotate(45)" fill="#fff"/>
                  <rect x="2327.4" y="583.5" width="9.9" height="1220" transform="translate(1527 -1299.6) rotate(45)" fill="#fff"/>
                  <rect x="2327.4" y="631" width="9.9" height="1220" transform="translate(1560.6 -1285.7) rotate(45)" fill="#fff"/>
                  <rect x="2327.4" y="678.6" width="9.9" height="1220" transform="translate(1594.2 -1271.8) rotate(45)" fill="#fff"/>
                  <rect x="2327.4" y="726.1" width="9.9" height="1220" transform="translate(1627.8 -1257.9) rotate(45)" fill="#fff"/>
                  <rect x="2327.4" y="773.6" width="9.9" height="1220" transform="translate(1661.5 -1244) rotate(45)" fill="#fff"/>
                  <rect x="2327.4" y="821.2" width="9.9" height="1220" transform="translate(1695 -1230) rotate(45)" fill="#fff"/>
                  <rect x="2327.4" y="868.7" width="9.9" height="1220" transform="translate(1728.6 -1216.1) rotate(45)" fill="#fff"/>
                  <rect x="2327.4" y="916.2" width="9.9" height="1220" transform="translate(1762.2 -1202.2) rotate(45)" fill="#fff"/>
                  <rect x="2327.4" y="963.8" width="9.9" height="1220" transform="translate(1795.8 -1188.2) rotate(45)" fill="#fff"/>
                </g>
              </g>
            </g>
            <g mix-blend-mode="screen" opacity=".1">
              <g clip-path="url(#o)">
                <g>
                  <g>
                    <g>
                      <path d="m364,1137.5c0,4.2-3.4,7.6-7.6,7.6s-7.6-3.4-7.6-7.6,3.4-7.6,7.6-7.6,7.6,3.4,7.6,7.6Z" fill="#fff"/>
                      <path d="m411.8,1137.5c0,4.2-3.4,7.6-7.6,7.6s-7.6-3.4-7.6-7.6,3.4-7.6,7.6-7.6,7.6,3.4,7.6,7.6Z" fill="#fff"/>
                      <path d="m459.7,1137.5c0,4.2-3.4,7.6-7.6,7.6s-7.6-3.4-7.6-7.6,3.4-7.6,7.6-7.6,7.6,3.4,7.6,7.6Z" fill="#fff"/>
                      <path d="m507.6,1137.5c0,4.2-3.4,7.6-7.6,7.6s-7.6-3.4-7.6-7.6,3.4-7.6,7.6-7.6,7.6,3.4,7.6,7.6Z" fill="#fff"/>
                      <path d="m555.5,1137.5c0,4.2-3.4,7.6-7.6,7.6s-7.6-3.4-7.6-7.6,3.4-7.6,7.6-7.6,7.6,3.4,7.6,7.6Z" fill="#fff"/>
                      <path d="m603.4,1137.5c0,4.2-3.4,7.6-7.6,7.6s-7.6-3.4-7.6-7.6,3.4-7.6,7.6-7.6,7.6,3.4,7.6,7.6Z" fill="#fff"/>
                      <path d="m651.2,1137.5c0,4.2-3.4,7.6-7.6,7.6s-7.6-3.4-7.6-7.6,3.4-7.6,7.6-7.6,7.6,3.4,7.6,7.6Z" fill="#fff"/>
                      <path d="m699.1,1137.5c0,4.2-3.4,7.6-7.6,7.6s-7.6-3.4-7.6-7.6,3.4-7.6,7.6-7.6,7.6,3.4,7.6,7.6Z" fill="#fff"/>
                    </g>
                    <g>
                      <path d="m364,1183.9c0,4.2-3.4,7.6-7.6,7.6s-7.6-3.4-7.6-7.6,3.4-7.6,7.6-7.6,7.6,3.4,7.6,7.6Z" fill="#fff"/>
                      <path d="m411.8,1183.9c0,4.2-3.4,7.6-7.6,7.6s-7.6-3.4-7.6-7.6,3.4-7.6,7.6-7.6,7.6,3.4,7.6,7.6Z" fill="#fff"/>
                      <path d="m459.7,1183.9c0,4.2-3.4,7.6-7.6,7.6s-7.6-3.4-7.6-7.6,3.4-7.6,7.6-7.6,7.6,3.4,7.6,7.6Z" fill="#fff"/>
                      <path d="m507.6,1183.9c0,4.2-3.4,7.6-7.6,7.6s-7.6-3.4-7.6-7.6,3.4-7.6,7.6-7.6,7.6,3.4,7.6,7.6Z" fill="#fff"/>
                      <path d="m555.5,1183.9c0,4.2-3.4,7.6-7.6,7.6s-7.6-3.4-7.6-7.6,3.4-7.6,7.6-7.6,7.6,3.4,7.6,7.6Z" fill="#fff"/>
                      <path d="m603.4,1183.9c0,4.2-3.4,7.6-7.6,7.6s-7.6-3.4-7.6-7.6,3.4-7.6,7.6-7.6,7.6,3.4,7.6,7.6Z" fill="#fff"/>
                      <path d="m651.2,1183.9c0,4.2-3.4,7.6-7.6,7.6s-7.6-3.4-7.6-7.6,3.4-7.6,7.6-7.6,7.6,3.4,7.6,7.6Z" fill="#fff"/>
                      <path d="m699.1,1183.9c0,4.2-3.4,7.6-7.6,7.6s-7.6-3.4-7.6-7.6,3.4-7.6,7.6-7.6,7.6,3.4,7.6,7.6Z" fill="#fff"/>
                    </g>
                    <g>
                      <path d="m364,1230.4c0,4.2-3.4,7.6-7.6,7.6s-7.6-3.4-7.6-7.6,3.4-7.6,7.6-7.6,7.6,3.4,7.6,7.6Z" fill="#fff"/>
                      <path d="m411.8,1230.4c0,4.2-3.4,7.6-7.6,7.6s-7.6-3.4-7.6-7.6,3.4-7.6,7.6-7.6,7.6,3.4,7.6,7.6Z" fill="#fff"/>
                      <circle cx="452.1" cy="1230.4" r="7.6" fill="#fff"/>
                      <path d="m507.6,1230.4c0,4.2-3.4,7.6-7.6,7.6s-7.6-3.4-7.6-7.6,3.4-7.6,7.6-7.6,7.6,3.4,7.6,7.6Z" fill="#fff"/>
                      <path d="m555.5,1230.4c0,4.2-3.4,7.6-7.6,7.6s-7.6-3.4-7.6-7.6,3.4-7.6,7.6-7.6,7.6,3.4,7.6,7.6Z" fill="#fff"/>
                      <path d="m603.4,1230.4c0,4.2-3.4,7.6-7.6,7.6s-7.6-3.4-7.6-7.6,3.4-7.6,7.6-7.6,7.6,3.4,7.6,7.6Z" fill="#fff"/>
                      <path d="m651.2,1230.4c0,4.2-3.4,7.6-7.6,7.6s-7.6-3.4-7.6-7.6,3.4-7.6,7.6-7.6,7.6,3.4,7.6,7.6Z" fill="#fff"/>
                      <circle cx="691.5" cy="1230.4" r="7.6" fill="#fff"/>
                    </g>
                    <g>
                      <path d="m364,1276.8c0,4.2-3.4,7.6-7.6,7.6s-7.6-3.4-7.6-7.6,3.4-7.6,7.6-7.6,7.6,3.4,7.6,7.6Z" fill="#fff"/>
                      <path d="m411.8,1276.8c0,4.2-3.4,7.6-7.6,7.6s-7.6-3.4-7.6-7.6,3.4-7.6,7.6-7.6,7.6,3.4,7.6,7.6Z" fill="#fff"/>
                      <path d="m459.7,1276.8c0,4.2-3.4,7.6-7.6,7.6s-7.6-3.4-7.6-7.6,3.4-7.6,7.6-7.6,7.6,3.4,7.6,7.6Z" fill="#fff"/>
                      <path d="m507.6,1276.8c0,4.2-3.4,7.6-7.6,7.6s-7.6-3.4-7.6-7.6,3.4-7.6,7.6-7.6,7.6,3.4,7.6,7.6Z" fill="#fff"/>
                      <path d="m555.5,1276.8c0,4.2-3.4,7.6-7.6,7.6s-7.6-3.4-7.6-7.6,3.4-7.6,7.6-7.6,7.6,3.4,7.6,7.6Z" fill="#fff"/>
                      <path d="m603.4,1276.8c0,4.2-3.4,7.6-7.6,7.6s-7.6-3.4-7.6-7.6,3.4-7.6,7.6-7.6,7.6,3.4,7.6,7.6Z" fill="#fff"/>
                      <path d="m651.2,1276.8c0,4.2-3.4,7.6-7.6,7.6s-7.6-3.4-7.6-7.6,3.4-7.6,7.6-7.6,7.6,3.4,7.6,7.6Z" fill="#fff"/>
                      <path d="m699.1,1276.8c0,4.2-3.4,7.6-7.6,7.6s-7.6-3.4-7.6-7.6,3.4-7.6,7.6-7.6,7.6,3.4,7.6,7.6Z" fill="#fff"/>
                    </g>
                  </g>
                  <g>
                    <g>
                      <path d="m39,1137.5c0,4.2-3.4,7.6-7.6,7.6s-7.6-3.4-7.6-7.6,3.4-7.6,7.6-7.6,7.6,3.4,7.6,7.6Z" fill="#fff"/>
                      <path d="m86.9,1137.5c0,4.2-3.4,7.6-7.6,7.6s-7.6-3.4-7.6-7.6,3.4-7.6,7.6-7.6,7.6,3.4,7.6,7.6Z" fill="#fff"/>
                      <path d="m134.8,1137.5c0,4.2-3.4,7.6-7.6,7.6s-7.6-3.4-7.6-7.6,3.4-7.6,7.6-7.6,7.6,3.4,7.6,7.6Z" fill="#fff"/>
                      <path d="m182.6,1137.5c0,4.2-3.4,7.6-7.6,7.6s-7.6-3.4-7.6-7.6,3.4-7.6,7.6-7.6,7.6,3.4,7.6,7.6Z" fill="#fff"/>
                      <path d="m230.5,1137.5c0,4.2-3.4,7.6-7.6,7.6s-7.6-3.4-7.6-7.6,3.4-7.6,7.6-7.6,7.6,3.4,7.6,7.6Z" fill="#fff"/>
                      <path d="m278.4,1137.5c0,4.2-3.4,7.6-7.6,7.6s-7.6-3.4-7.6-7.6,3.4-7.6,7.6-7.6,7.6,3.4,7.6,7.6Z" fill="#fff"/>
                      <path d="m326.3,1137.5c0,4.2-3.4,7.6-7.6,7.6s-7.6-3.4-7.6-7.6,3.4-7.6,7.6-7.6,7.6,3.4,7.6,7.6Z" fill="#fff"/>
                    </g>
                    <g>
                      <path d="m39,1183.9c0,4.2-3.4,7.6-7.6,7.6s-7.6-3.4-7.6-7.6,3.4-7.6,7.6-7.6,7.6,3.4,7.6,7.6Z" fill="#fff"/>
                      <path d="m86.9,1183.9c0,4.2-3.4,7.6-7.6,7.6s-7.6-3.4-7.6-7.6,3.4-7.6,7.6-7.6,7.6,3.4,7.6,7.6Z" fill="#fff"/>
                      <path d="m134.8,1183.9c0,4.2-3.4,7.6-7.6,7.6s-7.6-3.4-7.6-7.6,3.4-7.6,7.6-7.6,7.6,3.4,7.6,7.6Z" fill="#fff"/>
                      <path d="m182.6,1183.9c0,4.2-3.4,7.6-7.6,7.6s-7.6-3.4-7.6-7.6,3.4-7.6,7.6-7.6,7.6,3.4,7.6,7.6Z" fill="#fff"/>
                      <path d="m230.5,1183.9c0,4.2-3.4,7.6-7.6,7.6s-7.6-3.4-7.6-7.6,3.4-7.6,7.6-7.6,7.6,3.4,7.6,7.6Z" fill="#fff"/>
                      <path d="m278.4,1183.9c0,4.2-3.4,7.6-7.6,7.6s-7.6-3.4-7.6-7.6,3.4-7.6,7.6-7.6,7.6,3.4,7.6,7.6Z" fill="#fff"/>
                      <path d="m326.3,1183.9c0,4.2-3.4,7.6-7.6,7.6s-7.6-3.4-7.6-7.6,3.4-7.6,7.6-7.6,7.6,3.4,7.6,7.6Z" fill="#fff"/>
                    </g>
                    <g>
                      <path d="m39,1230.4c0,4.2-3.4,7.6-7.6,7.6s-7.6-3.4-7.6-7.6,3.4-7.6,7.6-7.6,7.6,3.4,7.6,7.6Z" fill="#fff"/>
                      <path d="m86.9,1230.4c0,4.2-3.4,7.6-7.6,7.6s-7.6-3.4-7.6-7.6,3.4-7.6,7.6-7.6,7.6,3.4,7.6,7.6Z" fill="#fff"/>
                      <path d="m134.8,1230.4c0,4.2-3.4,7.6-7.6,7.6s-7.6-3.4-7.6-7.6,3.4-7.6,7.6-7.6,7.6,3.4,7.6,7.6Z" fill="#fff"/>
                      <path d="m182.6,1230.4c0,4.2-3.4,7.6-7.6,7.6s-7.6-3.4-7.6-7.6,3.4-7.6,7.6-7.6,7.6,3.4,7.6,7.6Z" fill="#fff"/>
                      <path d="m230.5,1230.4c0,4.2-3.4,7.6-7.6,7.6s-7.6-3.4-7.6-7.6,3.4-7.6,7.6-7.6,7.6,3.4,7.6,7.6Z" fill="#fff"/>
                      <path d="m278.4,1230.4c0,4.2-3.4,7.6-7.6,7.6s-7.6-3.4-7.6-7.6,3.4-7.6,7.6-7.6,7.6,3.4,7.6,7.6Z" fill="#fff"/>
                      <path d="m326.3,1230.4c0,4.2-3.4,7.6-7.6,7.6s-7.6-3.4-7.6-7.6,3.4-7.6,7.6-7.6,7.6,3.4,7.6,7.6Z" fill="#fff"/>
                    </g>
                    <g>
                      <path d="m39,1276.8c0,4.2-3.4,7.6-7.6,7.6s-7.6-3.4-7.6-7.6,3.4-7.6,7.6-7.6,7.6,3.4,7.6,7.6Z" fill="#fff"/>
                      <path d="m86.9,1276.8c0,4.2-3.4,7.6-7.6,7.6s-7.6-3.4-7.6-7.6,3.4-7.6,7.6-7.6,7.6,3.4,7.6,7.6Z" fill="#fff"/>
                      <path d="m134.8,1276.8c0,4.2-3.4,7.6-7.6,7.6s-7.6-3.4-7.6-7.6,3.4-7.6,7.6-7.6,7.6,3.4,7.6,7.6Z" fill="#fff"/>
                      <path d="m182.6,1276.8c0,4.2-3.4,7.6-7.6,7.6s-7.6-3.4-7.6-7.6,3.4-7.6,7.6-7.6,7.6,3.4,7.6,7.6Z" fill="#fff"/>
                      <path d="m230.5,1276.8c0,4.2-3.4,7.6-7.6,7.6s-7.6-3.4-7.6-7.6,3.4-7.6,7.6-7.6,7.6,3.4,7.6,7.6Z" fill="#fff"/>
                      <path d="m278.4,1276.8c0,4.2-3.4,7.6-7.6,7.6s-7.6-3.4-7.6-7.6,3.4-7.6,7.6-7.6,7.6,3.4,7.6,7.6Z" fill="#fff"/>
                      <path d="m326.3,1276.8c0,4.2-3.4,7.6-7.6,7.6s-7.6-3.4-7.6-7.6,3.4-7.6,7.6-7.6,7.6,3.4,7.6,7.6Z" fill="#fff"/>
                    </g>
                  </g>
                </g>
              </g>
            </g>
            <g mix-blend-mode="screen" opacity=".1">
              <g clip-path="url(#p)">
                <g>
                  <g>
                    <g>
                      <path d="m1709.5,1019.7c0,2.9-2.4,5.3-5.3,5.3s-5.3-2.4-5.3-5.3,2.4-5.3,5.3-5.3,5.3,2.4,5.3,5.3Z" fill="#fff"/>
                      <path d="m1743,1019.7c0,2.9-2.4,5.3-5.3,5.3s-5.3-2.4-5.3-5.3,2.4-5.3,5.3-5.3,5.3,2.4,5.3,5.3Z" fill="#fff"/>
                      <path d="m1776.5,1019.7c0,2.9-2.4,5.3-5.3,5.3s-5.3-2.4-5.3-5.3,2.4-5.3,5.3-5.3,5.3,2.4,5.3,5.3Z" fill="#fff"/>
                      <path d="m1810,1019.7c0,2.9-2.4,5.3-5.3,5.3s-5.3-2.4-5.3-5.3,2.4-5.3,5.3-5.3,5.3,2.4,5.3,5.3Z" fill="#fff"/>
                      <path d="m1843.6,1019.7c0,2.9-2.4,5.3-5.3,5.3s-5.3-2.4-5.3-5.3,2.4-5.3,5.3-5.3,5.3,2.4,5.3,5.3Z" fill="#fff"/>
                      <path d="m1877.1,1019.7c0,2.9-2.4,5.3-5.3,5.3s-5.3-2.4-5.3-5.3,2.4-5.3,5.3-5.3,5.3,2.4,5.3,5.3Z" fill="#fff"/>
                      <path d="m1910.6,1019.7c0,2.9-2.4,5.3-5.3,5.3s-5.3-2.4-5.3-5.3,2.4-5.3,5.3-5.3,5.3,2.4,5.3,5.3Z" fill="#fff"/>
                      <path d="m1944.1,1019.7c0,2.9-2.4,5.3-5.3,5.3s-5.3-2.4-5.3-5.3,2.4-5.3,5.3-5.3,5.3,2.4,5.3,5.3Z" fill="#fff"/>
                    </g>
                    <g>
                      <path d="m1709.5,1052.2c0,2.9-2.4,5.3-5.3,5.3s-5.3-2.4-5.3-5.3,2.4-5.3,5.3-5.3,5.3,2.4,5.3,5.3Z" fill="#fff"/>
                      <path d="m1743,1052.2c0,2.9-2.4,5.3-5.3,5.3s-5.3-2.4-5.3-5.3,2.4-5.3,5.3-5.3,5.3,2.4,5.3,5.3Z" fill="#fff"/>
                      <path d="m1776.5,1052.2c0,2.9-2.4,5.3-5.3,5.3s-5.3-2.4-5.3-5.3,2.4-5.3,5.3-5.3,5.3,2.4,5.3,5.3Z" fill="#fff"/>
                      <path d="m1810,1052.2c0,2.9-2.4,5.3-5.3,5.3s-5.3-2.4-5.3-5.3,2.4-5.3,5.3-5.3,5.3,2.4,5.3,5.3Z" fill="#fff"/>
                      <path d="m1843.6,1052.2c0,2.9-2.4,5.3-5.3,5.3s-5.3-2.4-5.3-5.3,2.4-5.3,5.3-5.3,5.3,2.4,5.3,5.3Z" fill="#fff"/>
                      <path d="m1877.1,1052.2c0,2.9-2.4,5.3-5.3,5.3s-5.3-2.4-5.3-5.3,2.4-5.3,5.3-5.3,5.3,2.4,5.3,5.3Z" fill="#fff"/>
                      <path d="m1910.6,1052.2c0,2.9-2.4,5.3-5.3,5.3s-5.3-2.4-5.3-5.3,2.4-5.3,5.3-5.3,5.3,2.4,5.3,5.3Z" fill="#fff"/>
                      <path d="m1944.1,1052.2c0,2.9-2.4,5.3-5.3,5.3s-5.3-2.4-5.3-5.3,2.4-5.3,5.3-5.3,5.3,2.4,5.3,5.3Z" fill="#fff"/>
                    </g>
                    <g>
                      <path d="m1709.5,1084.7c0,2.9-2.4,5.3-5.3,5.3s-5.3-2.4-5.3-5.3,2.4-5.3,5.3-5.3,5.3,2.4,5.3,5.3Z" fill="#fff"/>
                      <path d="m1743,1084.7c0,2.9-2.4,5.3-5.3,5.3s-5.3-2.4-5.3-5.3,2.4-5.3,5.3-5.3,5.3,2.4,5.3,5.3Z" fill="#fff"/>
                      <path d="m1776.5,1084.7c0,2.9-2.4,5.3-5.3,5.3s-5.3-2.4-5.3-5.3,2.4-5.3,5.3-5.3,5.3,2.4,5.3,5.3Z" fill="#fff"/>
                      <path d="m1810,1084.7c0,2.9-2.4,5.3-5.3,5.3s-5.3-2.4-5.3-5.3,2.4-5.3,5.3-5.3,5.3,2.4,5.3,5.3Z" fill="#fff"/>
                      <path d="m1843.6,1084.7c0,2.9-2.4,5.3-5.3,5.3s-5.3-2.4-5.3-5.3,2.4-5.3,5.3-5.3,5.3,2.4,5.3,5.3Z" fill="#fff"/>
                      <path d="m1877.1,1084.7c0,2.9-2.4,5.3-5.3,5.3s-5.3-2.4-5.3-5.3,2.4-5.3,5.3-5.3,5.3,2.4,5.3,5.3Z" fill="#fff"/>
                      <path d="m1910.6,1084.7c0,2.9-2.4,5.3-5.3,5.3s-5.3-2.4-5.3-5.3,2.4-5.3,5.3-5.3,5.3,2.4,5.3,5.3Z" fill="#fff"/>
                      <circle cx="1938.8" cy="1084.7" r="5.3" fill="#fff"/>
                    </g>
                    <g>
                      <path d="m1709.5,1117.2c0,2.9-2.4,5.3-5.3,5.3s-5.3-2.4-5.3-5.3,2.4-5.3,5.3-5.3,5.3,2.4,5.3,5.3Z" fill="#fff"/>
                      <path d="m1743,1117.2c0,2.9-2.4,5.3-5.3,5.3s-5.3-2.4-5.3-5.3,2.4-5.3,5.3-5.3,5.3,2.4,5.3,5.3Z" fill="#fff"/>
                      <path d="m1776.5,1117.2c0,2.9-2.4,5.3-5.3,5.3s-5.3-2.4-5.3-5.3,2.4-5.3,5.3-5.3,5.3,2.4,5.3,5.3Z" fill="#fff"/>
                      <path d="m1810,1117.2c0,2.9-2.4,5.3-5.3,5.3s-5.3-2.4-5.3-5.3,2.4-5.3,5.3-5.3,5.3,2.4,5.3,5.3Z" fill="#fff"/>
                      <path d="m1843.6,1117.2c0,2.9-2.4,5.3-5.3,5.3s-5.3-2.4-5.3-5.3,2.4-5.3,5.3-5.3,5.3,2.4,5.3,5.3Z" fill="#fff"/>
                      <path d="m1877.1,1117.2c0,2.9-2.4,5.3-5.3,5.3s-5.3-2.4-5.3-5.3,2.4-5.3,5.3-5.3,5.3,2.4,5.3,5.3Z" fill="#fff"/>
                      <path d="m1910.6,1117.2c0,2.9-2.4,5.3-5.3,5.3s-5.3-2.4-5.3-5.3,2.4-5.3,5.3-5.3,5.3,2.4,5.3,5.3Z" fill="#fff"/>
                      <path d="m1944.1,1117.2c0,2.9-2.4,5.3-5.3,5.3s-5.3-2.4-5.3-5.3,2.4-5.3,5.3-5.3,5.3,2.4,5.3,5.3Z" fill="#fff"/>
                    </g>
                    <g>
                      <path d="m1709.5,1149.7c0,2.9-2.4,5.3-5.3,5.3s-5.3-2.4-5.3-5.3,2.4-5.3,5.3-5.3,5.3,2.4,5.3,5.3Z" fill="#fff"/>
                      <path d="m1743,1149.7c0,2.9-2.4,5.3-5.3,5.3s-5.3-2.4-5.3-5.3,2.4-5.3,5.3-5.3,5.3,2.4,5.3,5.3Z" fill="#fff"/>
                      <path d="m1776.5,1149.7c0,2.9-2.4,5.3-5.3,5.3s-5.3-2.4-5.3-5.3,2.4-5.3,5.3-5.3,5.3,2.4,5.3,5.3Z" fill="#fff"/>
                      <path d="m1810,1149.7c0,2.9-2.4,5.3-5.3,5.3s-5.3-2.4-5.3-5.3,2.4-5.3,5.3-5.3,5.3,2.4,5.3,5.3Z" fill="#fff"/>
                      <path d="m1843.6,1149.7c0,2.9-2.4,5.3-5.3,5.3s-5.3-2.4-5.3-5.3,2.4-5.3,5.3-5.3,5.3,2.4,5.3,5.3Z" fill="#fff"/>
                      <path d="m1877.1,1149.7c0,2.9-2.4,5.3-5.3,5.3s-5.3-2.4-5.3-5.3,2.4-5.3,5.3-5.3,5.3,2.4,5.3,5.3Z" fill="#fff"/>
                      <path d="m1910.6,1149.7c0,2.9-2.4,5.3-5.3,5.3s-5.3-2.4-5.3-5.3,2.4-5.3,5.3-5.3,5.3,2.4,5.3,5.3Z" fill="#fff"/>
                      <path d="m1944.1,1149.7c0,2.9-2.4,5.3-5.3,5.3s-5.3-2.4-5.3-5.3,2.4-5.3,5.3-5.3,5.3,2.4,5.3,5.3Z" fill="#fff"/>
                    </g>
                    <g>
                      <path d="m1709.5,1182.2c0,2.9-2.4,5.3-5.3,5.3s-5.3-2.4-5.3-5.3,2.4-5.3,5.3-5.3,5.3,2.4,5.3,5.3Z" fill="#fff"/>
                      <path d="m1743,1182.2c0,2.9-2.4,5.3-5.3,5.3s-5.3-2.4-5.3-5.3,2.4-5.3,5.3-5.3,5.3,2.4,5.3,5.3Z" fill="#fff"/>
                      <path d="m1776.5,1182.2c0,2.9-2.4,5.3-5.3,5.3s-5.3-2.4-5.3-5.3,2.4-5.3,5.3-5.3,5.3,2.4,5.3,5.3Z" fill="#fff"/>
                      <path d="m1810,1182.2c0,2.9-2.4,5.3-5.3,5.3s-5.3-2.4-5.3-5.3,2.4-5.3,5.3-5.3,5.3,2.4,5.3,5.3Z" fill="#fff"/>
                      <path d="m1843.6,1182.2c0,2.9-2.4,5.3-5.3,5.3s-5.3-2.4-5.3-5.3,2.4-5.3,5.3-5.3,5.3,2.4,5.3,5.3Z" fill="#fff"/>
                      <path d="m1877.1,1182.2c0,2.9-2.4,5.3-5.3,5.3s-5.3-2.4-5.3-5.3,2.4-5.3,5.3-5.3,5.3,2.4,5.3,5.3Z" fill="#fff"/>
                      <path d="m1910.6,1182.2c0,2.9-2.4,5.3-5.3,5.3s-5.3-2.4-5.3-5.3,2.4-5.3,5.3-5.3,5.3,2.4,5.3,5.3Z" fill="#fff"/>
                      <path d="m1944.1,1182.2c0,2.9-2.4,5.3-5.3,5.3s-5.3-2.4-5.3-5.3,2.4-5.3,5.3-5.3,5.3,2.4,5.3,5.3Z" fill="#fff"/>
                    </g>
                    <g>
                      <path d="m1709.5,1214.7c0,2.9-2.4,5.3-5.3,5.3s-5.3-2.4-5.3-5.3,2.4-5.3,5.3-5.3,5.3,2.4,5.3,5.3Z" fill="#fff"/>
                      <path d="m1743,1214.7c0,2.9-2.4,5.3-5.3,5.3s-5.3-2.4-5.3-5.3,2.4-5.3,5.3-5.3,5.3,2.4,5.3,5.3Z" fill="#fff"/>
                      <path d="m1776.5,1214.7c0,2.9-2.4,5.3-5.3,5.3s-5.3-2.4-5.3-5.3,2.4-5.3,5.3-5.3,5.3,2.4,5.3,5.3Z" fill="#fff"/>
                      <path d="m1810,1214.7c0,2.9-2.4,5.3-5.3,5.3s-5.3-2.4-5.3-5.3,2.4-5.3,5.3-5.3,5.3,2.4,5.3,5.3Z" fill="#fff"/>
                      <path d="m1843.6,1214.7c0,2.9-2.4,5.3-5.3,5.3s-5.3-2.4-5.3-5.3,2.4-5.3,5.3-5.3,5.3,2.4,5.3,5.3Z" fill="#fff"/>
                      <path d="m1877.1,1214.7c0,2.9-2.4,5.3-5.3,5.3s-5.3-2.4-5.3-5.3,2.4-5.3,5.3-5.3,5.3,2.4,5.3,5.3Z" fill="#fff"/>
                      <path d="m1910.6,1214.7c0,2.9-2.4,5.3-5.3,5.3s-5.3-2.4-5.3-5.3,2.4-5.3,5.3-5.3,5.3,2.4,5.3,5.3Z" fill="#fff"/>
                      <path d="m1944.1,1214.7c0,2.9-2.4,5.3-5.3,5.3s-5.3-2.4-5.3-5.3,2.4-5.3,5.3-5.3,5.3,2.4,5.3,5.3Z" fill="#fff"/>
                    </g>
                    <g>
                      <path d="m1709.5,1247.2c0,2.9-2.4,5.3-5.3,5.3s-5.3-2.4-5.3-5.3,2.4-5.3,5.3-5.3,5.3,2.4,5.3,5.3Z" fill="#fff"/>
                      <path d="m1743,1247.2c0,2.9-2.4,5.3-5.3,5.3s-5.3-2.4-5.3-5.3,2.4-5.3,5.3-5.3,5.3,2.4,5.3,5.3Z" fill="#fff"/>
                      <path d="m1776.5,1247.2c0,2.9-2.4,5.3-5.3,5.3s-5.3-2.4-5.3-5.3,2.4-5.3,5.3-5.3,5.3,2.4,5.3,5.3Z" fill="#fff"/>
                      <path d="m1810,1247.2c0,2.9-2.4,5.3-5.3,5.3s-5.3-2.4-5.3-5.3,2.4-5.3,5.3-5.3,5.3,2.4,5.3,5.3Z" fill="#fff"/>
                      <path d="m1843.6,1247.2c0,2.9-2.4,5.3-5.3,5.3s-5.3-2.4-5.3-5.3,2.4-5.3,5.3-5.3,5.3,2.4,5.3,5.3Z" fill="#fff"/>
                      <path d="m1877.1,1247.2c0,2.9-2.4,5.3-5.3,5.3s-5.3-2.4-5.3-5.3,2.4-5.3,5.3-5.3,5.3,2.4,5.3,5.3Z" fill="#fff"/>
                      <path d="m1910.6,1247.2c0,2.9-2.4,5.3-5.3,5.3s-5.3-2.4-5.3-5.3,2.4-5.3,5.3-5.3,5.3,2.4,5.3,5.3Z" fill="#fff"/>
                      <path d="m1944.1,1247.2c0,2.9-2.4,5.3-5.3,5.3s-5.3-2.4-5.3-5.3,2.4-5.3,5.3-5.3,5.3,2.4,5.3,5.3Z" fill="#fff"/>
                    </g>
                  </g>
                  <g>
                    <g>
                      <path d="m1448.4,1019.7c0,2.9-2.4,5.3-5.3,5.3s-5.3-2.4-5.3-5.3,2.4-5.3,5.3-5.3,5.3,2.4,5.3,5.3Z" fill="#fff"/>
                      <path d="m1481.9,1019.7c0,2.9-2.4,5.3-5.3,5.3s-5.3-2.4-5.3-5.3,2.4-5.3,5.3-5.3,5.3,2.4,5.3,5.3Z" fill="#fff"/>
                      <path d="m1515.5,1019.7c0,2.9-2.4,5.3-5.3,5.3s-5.3-2.4-5.3-5.3,2.4-5.3,5.3-5.3,5.3,2.4,5.3,5.3Z" fill="#fff"/>
                      <path d="m1549,1019.7c0,2.9-2.4,5.3-5.3,5.3s-5.3-2.4-5.3-5.3,2.4-5.3,5.3-5.3,5.3,2.4,5.3,5.3Z" fill="#fff"/>
                      <path d="m1582.5,1019.7c0,2.9-2.4,5.3-5.3,5.3s-5.3-2.4-5.3-5.3,2.4-5.3,5.3-5.3,5.3,2.4,5.3,5.3Z" fill="#fff"/>
                      <path d="m1616,1019.7c0,2.9-2.4,5.3-5.3,5.3s-5.3-2.4-5.3-5.3,2.4-5.3,5.3-5.3,5.3,2.4,5.3,5.3Z" fill="#fff"/>
                      <path d="m1649.5,1019.7c0,2.9-2.4,5.3-5.3,5.3s-5.3-2.4-5.3-5.3,2.4-5.3,5.3-5.3,5.3,2.4,5.3,5.3Z" fill="#fff"/>
                      <path d="m1683.1,1019.7c0,2.9-2.4,5.3-5.3,5.3s-5.3-2.4-5.3-5.3,2.4-5.3,5.3-5.3,5.3,2.4,5.3,5.3Z" fill="#fff"/>
                    </g>
                    <g>
                      <path d="m1448.4,1052.2c0,2.9-2.4,5.3-5.3,5.3s-5.3-2.4-5.3-5.3,2.4-5.3,5.3-5.3,5.3,2.4,5.3,5.3Z" fill="#fff"/>
                      <path d="m1481.9,1052.2c0,2.9-2.4,5.3-5.3,5.3s-5.3-2.4-5.3-5.3,2.4-5.3,5.3-5.3,5.3,2.4,5.3,5.3Z" fill="#fff"/>
                      <path d="m1515.5,1052.2c0,2.9-2.4,5.3-5.3,5.3s-5.3-2.4-5.3-5.3,2.4-5.3,5.3-5.3,5.3,2.4,5.3,5.3Z" fill="#fff"/>
                      <path d="m1549,1052.2c0,2.9-2.4,5.3-5.3,5.3s-5.3-2.4-5.3-5.3,2.4-5.3,5.3-5.3,5.3,2.4,5.3,5.3Z" fill="#fff"/>
                      <path d="m1582.5,1052.2c0,2.9-2.4,5.3-5.3,5.3s-5.3-2.4-5.3-5.3,2.4-5.3,5.3-5.3,5.3,2.4,5.3,5.3Z" fill="#fff"/>
                      <path d="m1616,1052.2c0,2.9-2.4,5.3-5.3,5.3s-5.3-2.4-5.3-5.3,2.4-5.3,5.3-5.3,5.3,2.4,5.3,5.3Z" fill="#fff"/>
                      <path d="m1649.5,1052.2c0,2.9-2.4,5.3-5.3,5.3s-5.3-2.4-5.3-5.3,2.4-5.3,5.3-5.3,5.3,2.4,5.3,5.3Z" fill="#fff"/>
                      <path d="m1683.1,1052.2c0,2.9-2.4,5.3-5.3,5.3s-5.3-2.4-5.3-5.3,2.4-5.3,5.3-5.3,5.3,2.4,5.3,5.3Z" fill="#fff"/>
                    </g>
                    <g>
                      <circle cx="1443.1" cy="1084.7" r="5.3" fill="#fff"/>
                      <path d="m1481.9,1084.7c0,2.9-2.4,5.3-5.3,5.3s-5.3-2.4-5.3-5.3,2.4-5.3,5.3-5.3,5.3,2.4,5.3,5.3Z" fill="#fff"/>
                      <path d="m1515.5,1084.7c0,2.9-2.4,5.3-5.3,5.3s-5.3-2.4-5.3-5.3,2.4-5.3,5.3-5.3,5.3,2.4,5.3,5.3Z" fill="#fff"/>
                      <path d="m1549,1084.7c0,2.9-2.4,5.3-5.3,5.3s-5.3-2.4-5.3-5.3,2.4-5.3,5.3-5.3,5.3,2.4,5.3,5.3Z" fill="#fff"/>
                      <path d="m1582.5,1084.7c0,2.9-2.4,5.3-5.3,5.3s-5.3-2.4-5.3-5.3,2.4-5.3,5.3-5.3,5.3,2.4,5.3,5.3Z" fill="#fff"/>
                      <path d="m1616,1084.7c0,2.9-2.4,5.3-5.3,5.3s-5.3-2.4-5.3-5.3,2.4-5.3,5.3-5.3,5.3,2.4,5.3,5.3Z" fill="#fff"/>
                      <path d="m1649.5,1084.7c0,2.9-2.4,5.3-5.3,5.3s-5.3-2.4-5.3-5.3,2.4-5.3,5.3-5.3,5.3,2.4,5.3,5.3Z" fill="#fff"/>
                      <path d="m1683.1,1084.7c0,2.9-2.4,5.3-5.3,5.3s-5.3-2.4-5.3-5.3,2.4-5.3,5.3-5.3,5.3,2.4,5.3,5.3Z" fill="#fff"/>
                    </g>
                    <g>
                      <path d="m1448.4,1117.2c0,2.9-2.4,5.3-5.3,5.3s-5.3-2.4-5.3-5.3,2.4-5.3,5.3-5.3,5.3,2.4,5.3,5.3Z" fill="#fff"/>
                      <path d="m1481.9,1117.2c0,2.9-2.4,5.3-5.3,5.3s-5.3-2.4-5.3-5.3,2.4-5.3,5.3-5.3,5.3,2.4,5.3,5.3Z" fill="#fff"/>
                      <path d="m1515.5,1117.2c0,2.9-2.4,5.3-5.3,5.3s-5.3-2.4-5.3-5.3,2.4-5.3,5.3-5.3,5.3,2.4,5.3,5.3Z" fill="#fff"/>
                      <path d="m1549,1117.2c0,2.9-2.4,5.3-5.3,5.3s-5.3-2.4-5.3-5.3,2.4-5.3,5.3-5.3,5.3,2.4,5.3,5.3Z" fill="#fff"/>
                      <path d="m1582.5,1117.2c0,2.9-2.4,5.3-5.3,5.3s-5.3-2.4-5.3-5.3,2.4-5.3,5.3-5.3,5.3,2.4,5.3,5.3Z" fill="#fff"/>
                      <path d="m1616,1117.2c0,2.9-2.4,5.3-5.3,5.3s-5.3-2.4-5.3-5.3,2.4-5.3,5.3-5.3,5.3,2.4,5.3,5.3Z" fill="#fff"/>
                      <path d="m1649.5,1117.2c0,2.9-2.4,5.3-5.3,5.3s-5.3-2.4-5.3-5.3,2.4-5.3,5.3-5.3,5.3,2.4,5.3,5.3Z" fill="#fff"/>
                      <path d="m1683.1,1117.2c0,2.9-2.4,5.3-5.3,5.3s-5.3-2.4-5.3-5.3,2.4-5.3,5.3-5.3,5.3,2.4,5.3,5.3Z" fill="#fff"/>
                    </g>
                    <g>
                      <path d="m1448.4,1149.7c0,2.9-2.4,5.3-5.3,5.3s-5.3-2.4-5.3-5.3,2.4-5.3,5.3-5.3,5.3,2.4,5.3,5.3Z" fill="#fff"/>
                      <path d="m1481.9,1149.7c0,2.9-2.4,5.3-5.3,5.3s-5.3-2.4-5.3-5.3,2.4-5.3,5.3-5.3,5.3,2.4,5.3,5.3Z" fill="#fff"/>
                      <path d="m1515.5,1149.7c0,2.9-2.4,5.3-5.3,5.3s-5.3-2.4-5.3-5.3,2.4-5.3,5.3-5.3,5.3,2.4,5.3,5.3Z" fill="#fff"/>
                      <path d="m1549,1149.7c0,2.9-2.4,5.3-5.3,5.3s-5.3-2.4-5.3-5.3,2.4-5.3,5.3-5.3,5.3,2.4,5.3,5.3Z" fill="#fff"/>
                      <path d="m1582.5,1149.7c0,2.9-2.4,5.3-5.3,5.3s-5.3-2.4-5.3-5.3,2.4-5.3,5.3-5.3,5.3,2.4,5.3,5.3Z" fill="#fff"/>
                      <path d="m1616,1149.7c0,2.9-2.4,5.3-5.3,5.3s-5.3-2.4-5.3-5.3,2.4-5.3,5.3-5.3,5.3,2.4,5.3,5.3Z" fill="#fff"/>
                      <path d="m1649.5,1149.7c0,2.9-2.4,5.3-5.3,5.3s-5.3-2.4-5.3-5.3,2.4-5.3,5.3-5.3,5.3,2.4,5.3,5.3Z" fill="#fff"/>
                      <path d="m1683.1,1149.7c0,2.9-2.4,5.3-5.3,5.3s-5.3-2.4-5.3-5.3,2.4-5.3,5.3-5.3,5.3,2.4,5.3,5.3Z" fill="#fff"/>
                    </g>
                    <g>
                      <path d="m1448.4,1182.2c0,2.9-2.4,5.3-5.3,5.3s-5.3-2.4-5.3-5.3,2.4-5.3,5.3-5.3,5.3,2.4,5.3,5.3Z" fill="#fff"/>
                      <path d="m1481.9,1182.2c0,2.9-2.4,5.3-5.3,5.3s-5.3-2.4-5.3-5.3,2.4-5.3,5.3-5.3,5.3,2.4,5.3,5.3Z" fill="#fff"/>
                      <path d="m1515.5,1182.2c0,2.9-2.4,5.3-5.3,5.3s-5.3-2.4-5.3-5.3,2.4-5.3,5.3-5.3,5.3,2.4,5.3,5.3Z" fill="#fff"/>
                      <path d="m1549,1182.2c0,2.9-2.4,5.3-5.3,5.3s-5.3-2.4-5.3-5.3,2.4-5.3,5.3-5.3,5.3,2.4,5.3,5.3Z" fill="#fff"/>
                      <path d="m1582.5,1182.2c0,2.9-2.4,5.3-5.3,5.3s-5.3-2.4-5.3-5.3,2.4-5.3,5.3-5.3,5.3,2.4,5.3,5.3Z" fill="#fff"/>
                      <path d="m1616,1182.2c0,2.9-2.4,5.3-5.3,5.3s-5.3-2.4-5.3-5.3,2.4-5.3,5.3-5.3,5.3,2.4,5.3,5.3Z" fill="#fff"/>
                      <path d="m1649.5,1182.2c0,2.9-2.4,5.3-5.3,5.3s-5.3-2.4-5.3-5.3,2.4-5.3,5.3-5.3,5.3,2.4,5.3,5.3Z" fill="#fff"/>
                      <path d="m1683.1,1182.2c0,2.9-2.4,5.3-5.3,5.3s-5.3-2.4-5.3-5.3,2.4-5.3,5.3-5.3,5.3,2.4,5.3,5.3Z" fill="#fff"/>
                    </g>
                    <g>
                      <path d="m1448.4,1214.7c0,2.9-2.4,5.3-5.3,5.3s-5.3-2.4-5.3-5.3,2.4-5.3,5.3-5.3,5.3,2.4,5.3,5.3Z" fill="#fff"/>
                      <path d="m1481.9,1214.7c0,2.9-2.4,5.3-5.3,5.3s-5.3-2.4-5.3-5.3,2.4-5.3,5.3-5.3,5.3,2.4,5.3,5.3Z" fill="#fff"/>
                      <path d="m1515.5,1214.7c0,2.9-2.4,5.3-5.3,5.3s-5.3-2.4-5.3-5.3,2.4-5.3,5.3-5.3,5.3,2.4,5.3,5.3Z" fill="#fff"/>
                      <path d="m1549,1214.7c0,2.9-2.4,5.3-5.3,5.3s-5.3-2.4-5.3-5.3,2.4-5.3,5.3-5.3,5.3,2.4,5.3,5.3Z" fill="#fff"/>
                      <path d="m1582.5,1214.7c0,2.9-2.4,5.3-5.3,5.3s-5.3-2.4-5.3-5.3,2.4-5.3,5.3-5.3,5.3,2.4,5.3,5.3Z" fill="#fff"/>
                      <path d="m1616,1214.7c0,2.9-2.4,5.3-5.3,5.3s-5.3-2.4-5.3-5.3,2.4-5.3,5.3-5.3,5.3,2.4,5.3,5.3Z" fill="#fff"/>
                      <path d="m1649.5,1214.7c0,2.9-2.4,5.3-5.3,5.3s-5.3-2.4-5.3-5.3,2.4-5.3,5.3-5.3,5.3,2.4,5.3,5.3Z" fill="#fff"/>
                      <path d="m1683.1,1214.7c0,2.9-2.4,5.3-5.3,5.3s-5.3-2.4-5.3-5.3,2.4-5.3,5.3-5.3,5.3,2.4,5.3,5.3Z" fill="#fff"/>
                    </g>
                    <g>
                      <path d="m1448.4,1247.2c0,2.9-2.4,5.3-5.3,5.3s-5.3-2.4-5.3-5.3,2.4-5.3,5.3-5.3,5.3,2.4,5.3,5.3Z" fill="#fff"/>
                      <path d="m1481.9,1247.2c0,2.9-2.4,5.3-5.3,5.3s-5.3-2.4-5.3-5.3,2.4-5.3,5.3-5.3,5.3,2.4,5.3,5.3Z" fill="#fff"/>
                      <path d="m1515.5,1247.2c0,2.9-2.4,5.3-5.3,5.3s-5.3-2.4-5.3-5.3,2.4-5.3,5.3-5.3,5.3,2.4,5.3,5.3Z" fill="#fff"/>
                      <path d="m1549,1247.2c0,2.9-2.4,5.3-5.3,5.3s-5.3-2.4-5.3-5.3,2.4-5.3,5.3-5.3,5.3,2.4,5.3,5.3Z" fill="#fff"/>
                      <path d="m1582.5,1247.2c0,2.9-2.4,5.3-5.3,5.3s-5.3-2.4-5.3-5.3,2.4-5.3,5.3-5.3,5.3,2.4,5.3,5.3Z" fill="#fff"/>
                      <path d="m1616,1247.2c0,2.9-2.4,5.3-5.3,5.3s-5.3-2.4-5.3-5.3,2.4-5.3,5.3-5.3,5.3,2.4,5.3,5.3Z" fill="#fff"/>
                      <path d="m1649.5,1247.2c0,2.9-2.4,5.3-5.3,5.3s-5.3-2.4-5.3-5.3,2.4-5.3,5.3-5.3,5.3,2.4,5.3,5.3Z" fill="#fff"/>
                      <path d="m1683.1,1247.2c0,2.9-2.4,5.3-5.3,5.3s-5.3-2.4-5.3-5.3,2.4-5.3,5.3-5.3,5.3,2.4,5.3,5.3Z" fill="#fff"/>
                    </g>
                  </g>
                  <g>
                    <path d="m1709.5,1273.6c0,2.9-2.4,5.3-5.3,5.3s-5.3-2.4-5.3-5.3,2.4-5.3,5.3-5.3,5.3,2.4,5.3,5.3Z" fill="#fff"/>
                    <path d="m1743,1273.6c0,2.9-2.4,5.3-5.3,5.3s-5.3-2.4-5.3-5.3,2.4-5.3,5.3-5.3,5.3,2.4,5.3,5.3Z" fill="#fff"/>
                    <path d="m1776.5,1273.6c0,2.9-2.4,5.3-5.3,5.3s-5.3-2.4-5.3-5.3,2.4-5.3,5.3-5.3,5.3,2.4,5.3,5.3Z" fill="#fff"/>
                    <path d="m1810,1273.6c0,2.9-2.4,5.3-5.3,5.3s-5.3-2.4-5.3-5.3,2.4-5.3,5.3-5.3,5.3,2.4,5.3,5.3Z" fill="#fff"/>
                    <path d="m1843.6,1273.6c0,2.9-2.4,5.3-5.3,5.3s-5.3-2.4-5.3-5.3,2.4-5.3,5.3-5.3,5.3,2.4,5.3,5.3Z" fill="#fff"/>
                    <path d="m1877.1,1273.6c0,2.9-2.4,5.3-5.3,5.3s-5.3-2.4-5.3-5.3,2.4-5.3,5.3-5.3,5.3,2.4,5.3,5.3Z" fill="#fff"/>
                    <path d="m1910.6,1273.6c0,2.9-2.4,5.3-5.3,5.3s-5.3-2.4-5.3-5.3,2.4-5.3,5.3-5.3,5.3,2.4,5.3,5.3Z" fill="#fff"/>
                    <path d="m1944.1,1273.6c0,2.9-2.4,5.3-5.3,5.3s-5.3-2.4-5.3-5.3,2.4-5.3,5.3-5.3,5.3,2.4,5.3,5.3Z" fill="#fff"/>
                  </g>
                  <g>
                    <path d="m1448.4,1273.6c0,2.9-2.4,5.3-5.3,5.3s-5.3-2.4-5.3-5.3,2.4-5.3,5.3-5.3,5.3,2.4,5.3,5.3Z" fill="#fff"/>
                    <path d="m1481.9,1273.6c0,2.9-2.4,5.3-5.3,5.3s-5.3-2.4-5.3-5.3,2.4-5.3,5.3-5.3,5.3,2.4,5.3,5.3Z" fill="#fff"/>
                    <path d="m1515.5,1273.6c0,2.9-2.4,5.3-5.3,5.3s-5.3-2.4-5.3-5.3,2.4-5.3,5.3-5.3,5.3,2.4,5.3,5.3Z" fill="#fff"/>
                    <path d="m1549,1273.6c0,2.9-2.4,5.3-5.3,5.3s-5.3-2.4-5.3-5.3,2.4-5.3,5.3-5.3,5.3,2.4,5.3,5.3Z" fill="#fff"/>
                    <path d="m1582.5,1273.6c0,2.9-2.4,5.3-5.3,5.3s-5.3-2.4-5.3-5.3,2.4-5.3,5.3-5.3,5.3,2.4,5.3,5.3Z" fill="#fff"/>
                    <path d="m1616,1273.6c0,2.9-2.4,5.3-5.3,5.3s-5.3-2.4-5.3-5.3,2.4-5.3,5.3-5.3,5.3,2.4,5.3,5.3Z" fill="#fff"/>
                    <path d="m1649.5,1273.6c0,2.9-2.4,5.3-5.3,5.3s-5.3-2.4-5.3-5.3,2.4-5.3,5.3-5.3,5.3,2.4,5.3,5.3Z" fill="#fff"/>
                    <path d="m1683.1,1273.6c0,2.9-2.4,5.3-5.3,5.3s-5.3-2.4-5.3-5.3,2.4-5.3,5.3-5.3,5.3,2.4,5.3,5.3Z" fill="#fff"/>
                  </g>
                </g>
              </g>
            </g>
            <g mix-blend-mode="screen" opacity=".1">
              <g clip-path="url(#q)">
                <g>
                  <g>
                    <g>
                      <path d="m2393.1,466.9c0,2.9-2.4,5.3-5.3,5.3s-5.3-2.4-5.3-5.3,2.4-5.3,5.3-5.3,5.3,2.4,5.3,5.3Z" fill="#fff"/>
                      <path d="m2426.6,466.9c0,2.9-2.4,5.3-5.3,5.3s-5.3-2.4-5.3-5.3,2.4-5.3,5.3-5.3,5.3,2.4,5.3,5.3Z" fill="#fff"/>
                      <path d="m2460.1,466.9c0,2.9-2.4,5.3-5.3,5.3s-5.3-2.4-5.3-5.3,2.4-5.3,5.3-5.3,5.3,2.4,5.3,5.3Z" fill="#fff"/>
                      <path d="m2493.6,466.9c0,2.9-2.4,5.3-5.3,5.3s-5.3-2.4-5.3-5.3,2.4-5.3,5.3-5.3,5.3,2.4,5.3,5.3Z" fill="#fff"/>
                      <path d="m2527.1,466.9c0,2.9-2.4,5.3-5.3,5.3s-5.3-2.4-5.3-5.3,2.4-5.3,5.3-5.3,5.3,2.4,5.3,5.3Z" fill="#fff"/>
                      <path d="m2560.7,466.9c0,2.9-2.4,5.3-5.3,5.3s-5.3-2.4-5.3-5.3,2.4-5.3,5.3-5.3,5.3,2.4,5.3,5.3Z" fill="#fff"/>
                    </g>
                    <g>
                      <path d="m2393.1,499.4c0,2.9-2.4,5.3-5.3,5.3s-5.3-2.4-5.3-5.3,2.4-5.3,5.3-5.3,5.3,2.4,5.3,5.3Z" fill="#fff"/>
                      <path d="m2426.6,499.4c0,2.9-2.4,5.3-5.3,5.3s-5.3-2.4-5.3-5.3,2.4-5.3,5.3-5.3,5.3,2.4,5.3,5.3Z" fill="#fff"/>
                      <path d="m2460.1,499.4c0,2.9-2.4,5.3-5.3,5.3s-5.3-2.4-5.3-5.3,2.4-5.3,5.3-5.3,5.3,2.4,5.3,5.3Z" fill="#fff"/>
                      <path d="m2493.6,499.4c0,2.9-2.4,5.3-5.3,5.3s-5.3-2.4-5.3-5.3,2.4-5.3,5.3-5.3,5.3,2.4,5.3,5.3Z" fill="#fff"/>
                      <path d="m2527.1,499.4c0,2.9-2.4,5.3-5.3,5.3s-5.3-2.4-5.3-5.3,2.4-5.3,5.3-5.3,5.3,2.4,5.3,5.3Z" fill="#fff"/>
                      <path d="m2560.7,499.4c0,2.9-2.4,5.3-5.3,5.3s-5.3-2.4-5.3-5.3,2.4-5.3,5.3-5.3,5.3,2.4,5.3,5.3Z" fill="#fff"/>
                    </g>
                    <g>
                      <path d="m2393.1,531.9c0,2.9-2.4,5.3-5.3,5.3s-5.3-2.4-5.3-5.3,2.4-5.3,5.3-5.3,5.3,2.4,5.3,5.3Z" fill="#fff"/>
                      <path d="m2426.6,531.9c0,2.9-2.4,5.3-5.3,5.3s-5.3-2.4-5.3-5.3,2.4-5.3,5.3-5.3,5.3,2.4,5.3,5.3Z" fill="#fff"/>
                      <path d="m2460.1,531.9c0,2.9-2.4,5.3-5.3,5.3s-5.3-2.4-5.3-5.3,2.4-5.3,5.3-5.3,5.3,2.4,5.3,5.3Z" fill="#fff"/>
                      <path d="m2493.6,531.9c0,2.9-2.4,5.3-5.3,5.3s-5.3-2.4-5.3-5.3,2.4-5.3,5.3-5.3,5.3,2.4,5.3,5.3Z" fill="#fff"/>
                      <path d="m2527.1,531.9c0,2.9-2.4,5.3-5.3,5.3s-5.3-2.4-5.3-5.3,2.4-5.3,5.3-5.3,5.3,2.4,5.3,5.3Z" fill="#fff"/>
                      <path d="m2560.7,531.9c0,2.9-2.4,5.3-5.3,5.3s-5.3-2.4-5.3-5.3,2.4-5.3,5.3-5.3,5.3,2.4,5.3,5.3Z" fill="#fff"/>
                    </g>
                    <g>
                      <path d="m2393.1,564.4c0,2.9-2.4,5.3-5.3,5.3s-5.3-2.4-5.3-5.3,2.4-5.3,5.3-5.3,5.3,2.4,5.3,5.3Z" fill="#fff"/>
                      <path d="m2426.6,564.4c0,2.9-2.4,5.3-5.3,5.3s-5.3-2.4-5.3-5.3,2.4-5.3,5.3-5.3,5.3,2.4,5.3,5.3Z" fill="#fff"/>
                      <path d="m2460.1,564.4c0,2.9-2.4,5.3-5.3,5.3s-5.3-2.4-5.3-5.3,2.4-5.3,5.3-5.3,5.3,2.4,5.3,5.3Z" fill="#fff"/>
                      <path d="m2493.6,564.4c0,2.9-2.4,5.3-5.3,5.3s-5.3-2.4-5.3-5.3,2.4-5.3,5.3-5.3,5.3,2.4,5.3,5.3Z" fill="#fff"/>
                      <path d="m2527.1,564.4c0,2.9-2.4,5.3-5.3,5.3s-5.3-2.4-5.3-5.3,2.4-5.3,5.3-5.3,5.3,2.4,5.3,5.3Z" fill="#fff"/>
                      <path d="m2560.7,564.4c0,2.9-2.4,5.3-5.3,5.3s-5.3-2.4-5.3-5.3,2.4-5.3,5.3-5.3,5.3,2.4,5.3,5.3Z" fill="#fff"/>
                    </g>
                    <g>
                      <path d="m2393.1,596.9c0,2.9-2.4,5.3-5.3,5.3s-5.3-2.4-5.3-5.3,2.4-5.3,5.3-5.3,5.3,2.4,5.3,5.3Z" fill="#fff"/>
                      <path d="m2426.6,596.9c0,2.9-2.4,5.3-5.3,5.3s-5.3-2.4-5.3-5.3,2.4-5.3,5.3-5.3,5.3,2.4,5.3,5.3Z" fill="#fff"/>
                      <path d="m2460.1,596.9c0,2.9-2.4,5.3-5.3,5.3s-5.3-2.4-5.3-5.3,2.4-5.3,5.3-5.3,5.3,2.4,5.3,5.3Z" fill="#fff"/>
                      <path d="m2493.6,596.9c0,2.9-2.4,5.3-5.3,5.3s-5.3-2.4-5.3-5.3,2.4-5.3,5.3-5.3,5.3,2.4,5.3,5.3Z" fill="#fff"/>
                      <path d="m2527.1,596.9c0,2.9-2.4,5.3-5.3,5.3s-5.3-2.4-5.3-5.3,2.4-5.3,5.3-5.3,5.3,2.4,5.3,5.3Z" fill="#fff"/>
                      <path d="m2560.7,596.9c0,2.9-2.4,5.3-5.3,5.3s-5.3-2.4-5.3-5.3,2.4-5.3,5.3-5.3,5.3,2.4,5.3,5.3Z" fill="#fff"/>
                    </g>
                    <g>
                      <path d="m2393.1,629.4c0,2.9-2.4,5.3-5.3,5.3s-5.3-2.4-5.3-5.3,2.4-5.3,5.3-5.3,5.3,2.4,5.3,5.3Z" fill="#fff"/>
                      <path d="m2426.6,629.4c0,2.9-2.4,5.3-5.3,5.3s-5.3-2.4-5.3-5.3,2.4-5.3,5.3-5.3,5.3,2.4,5.3,5.3Z" fill="#fff"/>
                      <path d="m2460.1,629.4c0,2.9-2.4,5.3-5.3,5.3s-5.3-2.4-5.3-5.3,2.4-5.3,5.3-5.3,5.3,2.4,5.3,5.3Z" fill="#fff"/>
                      <path d="m2493.6,629.4c0,2.9-2.4,5.3-5.3,5.3s-5.3-2.4-5.3-5.3,2.4-5.3,5.3-5.3,5.3,2.4,5.3,5.3Z" fill="#fff"/>
                      <path d="m2527.1,629.4c0,2.9-2.4,5.3-5.3,5.3s-5.3-2.4-5.3-5.3,2.4-5.3,5.3-5.3,5.3,2.4,5.3,5.3Z" fill="#fff"/>
                      <path d="m2560.7,629.4c0,2.9-2.4,5.3-5.3,5.3s-5.3-2.4-5.3-5.3,2.4-5.3,5.3-5.3,5.3,2.4,5.3,5.3Z" fill="#fff"/>
                    </g>
                    <g>
                      <path d="m2393.1,661.9c0,2.9-2.4,5.3-5.3,5.3s-5.3-2.4-5.3-5.3,2.4-5.3,5.3-5.3,5.3,2.4,5.3,5.3Z" fill="#fff"/>
                      <path d="m2426.6,661.9c0,2.9-2.4,5.3-5.3,5.3s-5.3-2.4-5.3-5.3,2.4-5.3,5.3-5.3,5.3,2.4,5.3,5.3Z" fill="#fff"/>
                      <path d="m2460.1,661.9c0,2.9-2.4,5.3-5.3,5.3s-5.3-2.4-5.3-5.3,2.4-5.3,5.3-5.3,5.3,2.4,5.3,5.3Z" fill="#fff"/>
                      <path d="m2493.6,661.9c0,2.9-2.4,5.3-5.3,5.3s-5.3-2.4-5.3-5.3,2.4-5.3,5.3-5.3,5.3,2.4,5.3,5.3Z" fill="#fff"/>
                      <path d="m2527.1,661.9c0,2.9-2.4,5.3-5.3,5.3s-5.3-2.4-5.3-5.3,2.4-5.3,5.3-5.3,5.3,2.4,5.3,5.3Z" fill="#fff"/>
                      <path d="m2560.7,661.9c0,2.9-2.4,5.3-5.3,5.3s-5.3-2.4-5.3-5.3,2.4-5.3,5.3-5.3,5.3,2.4,5.3,5.3Z" fill="#fff"/>
                    </g>
                    <g>
                      <path d="m2393.1,694.4c0,2.9-2.4,5.3-5.3,5.3s-5.3-2.4-5.3-5.3,2.4-5.3,5.3-5.3,5.3,2.4,5.3,5.3Z" fill="#fff"/>
                      <path d="m2426.6,694.4c0,2.9-2.4,5.3-5.3,5.3s-5.3-2.4-5.3-5.3,2.4-5.3,5.3-5.3,5.3,2.4,5.3,5.3Z" fill="#fff"/>
                      <path d="m2460.1,694.4c0,2.9-2.4,5.3-5.3,5.3s-5.3-2.4-5.3-5.3,2.4-5.3,5.3-5.3,5.3,2.4,5.3,5.3Z" fill="#fff"/>
                      <path d="m2493.6,694.4c0,2.9-2.4,5.3-5.3,5.3s-5.3-2.4-5.3-5.3,2.4-5.3,5.3-5.3,5.3,2.4,5.3,5.3Z" fill="#fff"/>
                      <path d="m2527.1,694.4c0,2.9-2.4,5.3-5.3,5.3s-5.3-2.4-5.3-5.3,2.4-5.3,5.3-5.3,5.3,2.4,5.3,5.3Z" fill="#fff"/>
                      <path d="m2560.7,694.4c0,2.9-2.4,5.3-5.3,5.3s-5.3-2.4-5.3-5.3,2.4-5.3,5.3-5.3,5.3,2.4,5.3,5.3Z" fill="#fff"/>
                    </g>
                  </g>
                  <g>
                    <g>
                      <path d="m2393.1,720.8c0,2.9-2.4,5.3-5.3,5.3s-5.3-2.4-5.3-5.3,2.4-5.3,5.3-5.3,5.3,2.4,5.3,5.3Z" fill="#fff"/>
                      <path d="m2426.6,720.8c0,2.9-2.4,5.3-5.3,5.3s-5.3-2.4-5.3-5.3,2.4-5.3,5.3-5.3,5.3,2.4,5.3,5.3Z" fill="#fff"/>
                      <path d="m2460.1,720.8c0,2.9-2.4,5.3-5.3,5.3s-5.3-2.4-5.3-5.3,2.4-5.3,5.3-5.3,5.3,2.4,5.3,5.3Z" fill="#fff"/>
                      <path d="m2493.6,720.8c0,2.9-2.4,5.3-5.3,5.3s-5.3-2.4-5.3-5.3,2.4-5.3,5.3-5.3,5.3,2.4,5.3,5.3Z" fill="#fff"/>
                      <path d="m2527.1,720.8c0,2.9-2.4,5.3-5.3,5.3s-5.3-2.4-5.3-5.3,2.4-5.3,5.3-5.3,5.3,2.4,5.3,5.3Z" fill="#fff"/>
                      <path d="m2560.7,720.8c0,2.9-2.4,5.3-5.3,5.3s-5.3-2.4-5.3-5.3,2.4-5.3,5.3-5.3,5.3,2.4,5.3,5.3Z" fill="#fff"/>
                    </g>
                    <g>
                      <path d="m2393.1,753.4c0,2.9-2.4,5.3-5.3,5.3s-5.3-2.4-5.3-5.3,2.4-5.3,5.3-5.3,5.3,2.4,5.3,5.3Z" fill="#fff"/>
                      <path d="m2426.6,753.4c0,2.9-2.4,5.3-5.3,5.3s-5.3-2.4-5.3-5.3,2.4-5.3,5.3-5.3,5.3,2.4,5.3,5.3Z" fill="#fff"/>
                      <path d="m2460.1,753.4c0,2.9-2.4,5.3-5.3,5.3s-5.3-2.4-5.3-5.3,2.4-5.3,5.3-5.3,5.3,2.4,5.3,5.3Z" fill="#fff"/>
                      <path d="m2493.6,753.4c0,2.9-2.4,5.3-5.3,5.3s-5.3-2.4-5.3-5.3,2.4-5.3,5.3-5.3,5.3,2.4,5.3,5.3Z" fill="#fff"/>
                      <path d="m2527.1,753.4c0,2.9-2.4,5.3-5.3,5.3s-5.3-2.4-5.3-5.3,2.4-5.3,5.3-5.3,5.3,2.4,5.3,5.3Z" fill="#fff"/>
                      <path d="m2560.7,753.4c0,2.9-2.4,5.3-5.3,5.3s-5.3-2.4-5.3-5.3,2.4-5.3,5.3-5.3,5.3,2.4,5.3,5.3Z" fill="#fff"/>
                    </g>
                    <g>
                      <path d="m2393.1,785.9c0,2.9-2.4,5.3-5.3,5.3s-5.3-2.4-5.3-5.3,2.4-5.3,5.3-5.3,5.3,2.4,5.3,5.3Z" fill="#fff"/>
                      <path d="m2426.6,785.9c0,2.9-2.4,5.3-5.3,5.3s-5.3-2.4-5.3-5.3,2.4-5.3,5.3-5.3,5.3,2.4,5.3,5.3Z" fill="#fff"/>
                      <path d="m2460.1,785.9c0,2.9-2.4,5.3-5.3,5.3s-5.3-2.4-5.3-5.3,2.4-5.3,5.3-5.3,5.3,2.4,5.3,5.3Z" fill="#fff"/>
                      <path d="m2493.6,785.9c0,2.9-2.4,5.3-5.3,5.3s-5.3-2.4-5.3-5.3,2.4-5.3,5.3-5.3,5.3,2.4,5.3,5.3Z" fill="#fff"/>
                      <path d="m2527.1,785.9c0,2.9-2.4,5.3-5.3,5.3s-5.3-2.4-5.3-5.3,2.4-5.3,5.3-5.3,5.3,2.4,5.3,5.3Z" fill="#fff"/>
                      <path d="m2560.7,785.9c0,2.9-2.4,5.3-5.3,5.3s-5.3-2.4-5.3-5.3,2.4-5.3,5.3-5.3,5.3,2.4,5.3,5.3Z" fill="#fff"/>
                    </g>
                    <g>
                      <path d="m2393.1,818.4c0,2.9-2.4,5.3-5.3,5.3s-5.3-2.4-5.3-5.3,2.4-5.3,5.3-5.3,5.3,2.4,5.3,5.3Z" fill="#fff"/>
                      <path d="m2426.6,818.4c0,2.9-2.4,5.3-5.3,5.3s-5.3-2.4-5.3-5.3,2.4-5.3,5.3-5.3,5.3,2.4,5.3,5.3Z" fill="#fff"/>
                      <path d="m2460.1,818.4c0,2.9-2.4,5.3-5.3,5.3s-5.3-2.4-5.3-5.3,2.4-5.3,5.3-5.3,5.3,2.4,5.3,5.3Z" fill="#fff"/>
                      <path d="m2493.6,818.4c0,2.9-2.4,5.3-5.3,5.3s-5.3-2.4-5.3-5.3,2.4-5.3,5.3-5.3,5.3,2.4,5.3,5.3Z" fill="#fff"/>
                      <path d="m2527.1,818.4c0,2.9-2.4,5.3-5.3,5.3s-5.3-2.4-5.3-5.3,2.4-5.3,5.3-5.3,5.3,2.4,5.3,5.3Z" fill="#fff"/>
                      <path d="m2560.7,818.4c0,2.9-2.4,5.3-5.3,5.3s-5.3-2.4-5.3-5.3,2.4-5.3,5.3-5.3,5.3,2.4,5.3,5.3Z" fill="#fff"/>
                    </g>
                    <g>
                      <path d="m2393.1,850.9c0,2.9-2.4,5.3-5.3,5.3s-5.3-2.4-5.3-5.3,2.4-5.3,5.3-5.3,5.3,2.4,5.3,5.3Z" fill="#fff"/>
                      <path d="m2426.6,850.9c0,2.9-2.4,5.3-5.3,5.3s-5.3-2.4-5.3-5.3,2.4-5.3,5.3-5.3,5.3,2.4,5.3,5.3Z" fill="#fff"/>
                      <path d="m2460.1,850.9c0,2.9-2.4,5.3-5.3,5.3s-5.3-2.4-5.3-5.3,2.4-5.3,5.3-5.3,5.3,2.4,5.3,5.3Z" fill="#fff"/>
                      <path d="m2493.6,850.9c0,2.9-2.4,5.3-5.3,5.3s-5.3-2.4-5.3-5.3,2.4-5.3,5.3-5.3,5.3,2.4,5.3,5.3Z" fill="#fff"/>
                      <path d="m2527.1,850.9c0,2.9-2.4,5.3-5.3,5.3s-5.3-2.4-5.3-5.3,2.4-5.3,5.3-5.3,5.3,2.4,5.3,5.3Z" fill="#fff"/>
                      <path d="m2560.7,850.9c0,2.9-2.4,5.3-5.3,5.3s-5.3-2.4-5.3-5.3,2.4-5.3,5.3-5.3,5.3,2.4,5.3,5.3Z" fill="#fff"/>
                    </g>
                    <g>
                      <path d="m2393.1,883.4c0,2.9-2.4,5.3-5.3,5.3s-5.3-2.4-5.3-5.3,2.4-5.3,5.3-5.3,5.3,2.4,5.3,5.3Z" fill="#fff"/>
                      <path d="m2426.6,883.4c0,2.9-2.4,5.3-5.3,5.3s-5.3-2.4-5.3-5.3,2.4-5.3,5.3-5.3,5.3,2.4,5.3,5.3Z" fill="#fff"/>
                      <path d="m2460.1,883.4c0,2.9-2.4,5.3-5.3,5.3s-5.3-2.4-5.3-5.3,2.4-5.3,5.3-5.3,5.3,2.4,5.3,5.3Z" fill="#fff"/>
                      <path d="m2493.6,883.4c0,2.9-2.4,5.3-5.3,5.3s-5.3-2.4-5.3-5.3,2.4-5.3,5.3-5.3,5.3,2.4,5.3,5.3Z" fill="#fff"/>
                      <path d="m2527.1,883.4c0,2.9-2.4,5.3-5.3,5.3s-5.3-2.4-5.3-5.3,2.4-5.3,5.3-5.3,5.3,2.4,5.3,5.3Z" fill="#fff"/>
                      <path d="m2560.7,883.4c0,2.9-2.4,5.3-5.3,5.3s-5.3-2.4-5.3-5.3,2.4-5.3,5.3-5.3,5.3,2.4,5.3,5.3Z" fill="#fff"/>
                    </g>
                    <g>
                      <path d="m2393.1,915.9c0,2.9-2.4,5.3-5.3,5.3s-5.3-2.4-5.3-5.3,2.4-5.3,5.3-5.3,5.3,2.4,5.3,5.3Z" fill="#fff"/>
                      <path d="m2426.6,915.9c0,2.9-2.4,5.3-5.3,5.3s-5.3-2.4-5.3-5.3,2.4-5.3,5.3-5.3,5.3,2.4,5.3,5.3Z" fill="#fff"/>
                      <path d="m2460.1,915.9c0,2.9-2.4,5.3-5.3,5.3s-5.3-2.4-5.3-5.3,2.4-5.3,5.3-5.3,5.3,2.4,5.3,5.3Z" fill="#fff"/>
                      <path d="m2493.6,915.9c0,2.9-2.4,5.3-5.3,5.3s-5.3-2.4-5.3-5.3,2.4-5.3,5.3-5.3,5.3,2.4,5.3,5.3Z" fill="#fff"/>
                      <path d="m2527.1,915.9c0,2.9-2.4,5.3-5.3,5.3s-5.3-2.4-5.3-5.3,2.4-5.3,5.3-5.3,5.3,2.4,5.3,5.3Z" fill="#fff"/>
                      <path d="m2560.7,915.9c0,2.9-2.4,5.3-5.3,5.3s-5.3-2.4-5.3-5.3,2.4-5.3,5.3-5.3,5.3,2.4,5.3,5.3Z" fill="#fff"/>
                    </g>
                    <g>
                      <path d="m2393.1,948.4c0,2.9-2.4,5.3-5.3,5.3s-5.3-2.4-5.3-5.3,2.4-5.3,5.3-5.3,5.3,2.4,5.3,5.3Z" fill="#fff"/>
                      <path d="m2426.6,948.4c0,2.9-2.4,5.3-5.3,5.3s-5.3-2.4-5.3-5.3,2.4-5.3,5.3-5.3,5.3,2.4,5.3,5.3Z" fill="#fff"/>
                      <path d="m2460.1,948.4c0,2.9-2.4,5.3-5.3,5.3s-5.3-2.4-5.3-5.3,2.4-5.3,5.3-5.3,5.3,2.4,5.3,5.3Z" fill="#fff"/>
                      <path d="m2493.6,948.4c0,2.9-2.4,5.3-5.3,5.3s-5.3-2.4-5.3-5.3,2.4-5.3,5.3-5.3,5.3,2.4,5.3,5.3Z" fill="#fff"/>
                      <path d="m2527.1,948.4c0,2.9-2.4,5.3-5.3,5.3s-5.3-2.4-5.3-5.3,2.4-5.3,5.3-5.3,5.3,2.4,5.3,5.3Z" fill="#fff"/>
                      <path d="m2560.7,948.4c0,2.9-2.4,5.3-5.3,5.3s-5.3-2.4-5.3-5.3,2.4-5.3,5.3-5.3,5.3,2.4,5.3,5.3Z" fill="#fff"/>
                    </g>
                  </g>
                </g>
              </g>
            </g>
            <g mix-blend-mode="screen" opacity=".1">
              <g clip-path="url(#r)">
                <g>
                  <g>
                    <g>
                      <path d="m925.9,899.8c0,2.9-2.4,5.3-5.3,5.3s-5.3-2.4-5.3-5.3,2.4-5.3,5.3-5.3,5.3,2.4,5.3,5.3Z" fill="#fff"/>
                      <path d="m959.5,899.8c0,2.9-2.4,5.3-5.3,5.3s-5.3-2.4-5.3-5.3,2.4-5.3,5.3-5.3,5.3,2.4,5.3,5.3Z" fill="#fff"/>
                      <path d="m993,899.8c0,2.9-2.4,5.3-5.3,5.3s-5.3-2.4-5.3-5.3,2.4-5.3,5.3-5.3,5.3,2.4,5.3,5.3Z" fill="#fff"/>
                      <path d="m1026.5,899.8c0,2.9-2.4,5.3-5.3,5.3s-5.3-2.4-5.3-5.3,2.4-5.3,5.3-5.3,5.3,2.4,5.3,5.3Z" fill="#fff"/>
                      <path d="m1060,899.8c0,2.9-2.4,5.3-5.3,5.3s-5.3-2.4-5.3-5.3,2.4-5.3,5.3-5.3,5.3,2.4,5.3,5.3Z" fill="#fff"/>
                      <path d="m1093.5,899.8c0,2.9-2.4,5.3-5.3,5.3s-5.3-2.4-5.3-5.3,2.4-5.3,5.3-5.3,5.3,2.4,5.3,5.3Z" fill="#fff"/>
                      <path d="m1127.1,899.8c0,2.9-2.4,5.3-5.3,5.3s-5.3-2.4-5.3-5.3,2.4-5.3,5.3-5.3,5.3,2.4,5.3,5.3Z" fill="#fff"/>
                      <path d="m1160.6,899.8c0,2.9-2.4,5.3-5.3,5.3s-5.3-2.4-5.3-5.3,2.4-5.3,5.3-5.3,5.3,2.4,5.3,5.3Z" fill="#fff"/>
                    </g>
                    <g>
                      <path d="m925.9,932.4c0,2.9-2.4,5.3-5.3,5.3s-5.3-2.4-5.3-5.3,2.4-5.3,5.3-5.3,5.3,2.4,5.3,5.3Z" fill="#fff"/>
                      <path d="m959.5,932.4c0,2.9-2.4,5.3-5.3,5.3s-5.3-2.4-5.3-5.3,2.4-5.3,5.3-5.3,5.3,2.4,5.3,5.3Z" fill="#fff"/>
                      <path d="m993,932.4c0,2.9-2.4,5.3-5.3,5.3s-5.3-2.4-5.3-5.3,2.4-5.3,5.3-5.3,5.3,2.4,5.3,5.3Z" fill="#fff"/>
                      <path d="m1026.5,932.4c0,2.9-2.4,5.3-5.3,5.3s-5.3-2.4-5.3-5.3,2.4-5.3,5.3-5.3,5.3,2.4,5.3,5.3Z" fill="#fff"/>
                      <path d="m1060,932.4c0,2.9-2.4,5.3-5.3,5.3s-5.3-2.4-5.3-5.3,2.4-5.3,5.3-5.3,5.3,2.4,5.3,5.3Z" fill="#fff"/>
                      <path d="m1093.5,932.4c0,2.9-2.4,5.3-5.3,5.3s-5.3-2.4-5.3-5.3,2.4-5.3,5.3-5.3,5.3,2.4,5.3,5.3Z" fill="#fff"/>
                      <path d="m1127.1,932.4c0,2.9-2.4,5.3-5.3,5.3s-5.3-2.4-5.3-5.3,2.4-5.3,5.3-5.3,5.3,2.4,5.3,5.3Z" fill="#fff"/>
                      <path d="m1160.6,932.4c0,2.9-2.4,5.3-5.3,5.3s-5.3-2.4-5.3-5.3,2.4-5.3,5.3-5.3,5.3,2.4,5.3,5.3Z" fill="#fff"/>
                    </g>
                    <g>
                      <path d="m925.9,964.9c0,2.9-2.4,5.3-5.3,5.3s-5.3-2.4-5.3-5.3,2.4-5.3,5.3-5.3,5.3,2.4,5.3,5.3Z" fill="#fff"/>
                      <path d="m959.5,964.9c0,2.9-2.4,5.3-5.3,5.3s-5.3-2.4-5.3-5.3,2.4-5.3,5.3-5.3,5.3,2.4,5.3,5.3Z" fill="#fff"/>
                      <circle cx="987.6" cy="964.9" r="5.3" fill="#fff"/>
                      <path d="m1026.5,964.9c0,2.9-2.4,5.3-5.3,5.3s-5.3-2.4-5.3-5.3,2.4-5.3,5.3-5.3,5.3,2.4,5.3,5.3Z" fill="#fff"/>
                      <path d="m1060,964.9c0,2.9-2.4,5.3-5.3,5.3s-5.3-2.4-5.3-5.3,2.4-5.3,5.3-5.3,5.3,2.4,5.3,5.3Z" fill="#fff"/>
                      <path d="m1093.5,964.9c0,2.9-2.4,5.3-5.3,5.3s-5.3-2.4-5.3-5.3,2.4-5.3,5.3-5.3,5.3,2.4,5.3,5.3Z" fill="#fff"/>
                      <path d="m1127.1,964.9c0,2.9-2.4,5.3-5.3,5.3s-5.3-2.4-5.3-5.3,2.4-5.3,5.3-5.3,5.3,2.4,5.3,5.3Z" fill="#fff"/>
                      <circle cx="1155.3" cy="964.9" r="5.3" fill="#fff"/>
                    </g>
                    <g>
                      <path d="m925.9,997.4c0,2.9-2.4,5.3-5.3,5.3s-5.3-2.4-5.3-5.3,2.4-5.3,5.3-5.3,5.3,2.4,5.3,5.3Z" fill="#fff"/>
                      <path d="m959.5,997.4c0,2.9-2.4,5.3-5.3,5.3s-5.3-2.4-5.3-5.3,2.4-5.3,5.3-5.3,5.3,2.4,5.3,5.3Z" fill="#fff"/>
                      <path d="m993,997.4c0,2.9-2.4,5.3-5.3,5.3s-5.3-2.4-5.3-5.3,2.4-5.3,5.3-5.3,5.3,2.4,5.3,5.3Z" fill="#fff"/>
                      <path d="m1026.5,997.4c0,2.9-2.4,5.3-5.3,5.3s-5.3-2.4-5.3-5.3,2.4-5.3,5.3-5.3,5.3,2.4,5.3,5.3Z" fill="#fff"/>
                      <path d="m1060,997.4c0,2.9-2.4,5.3-5.3,5.3s-5.3-2.4-5.3-5.3,2.4-5.3,5.3-5.3,5.3,2.4,5.3,5.3Z" fill="#fff"/>
                      <path d="m1093.5,997.4c0,2.9-2.4,5.3-5.3,5.3s-5.3-2.4-5.3-5.3,2.4-5.3,5.3-5.3,5.3,2.4,5.3,5.3Z" fill="#fff"/>
                      <path d="m1127.1,997.4c0,2.9-2.4,5.3-5.3,5.3s-5.3-2.4-5.3-5.3,2.4-5.3,5.3-5.3,5.3,2.4,5.3,5.3Z" fill="#fff"/>
                      <path d="m1160.6,997.4c0,2.9-2.4,5.3-5.3,5.3s-5.3-2.4-5.3-5.3,2.4-5.3,5.3-5.3,5.3,2.4,5.3,5.3Z" fill="#fff"/>
                    </g>
                    <g>
                      <path d="m925.9,1029.9c0,2.9-2.4,5.3-5.3,5.3s-5.3-2.4-5.3-5.3,2.4-5.3,5.3-5.3,5.3,2.4,5.3,5.3Z" fill="#fff"/>
                      <path d="m959.5,1029.9c0,2.9-2.4,5.3-5.3,5.3s-5.3-2.4-5.3-5.3,2.4-5.3,5.3-5.3,5.3,2.4,5.3,5.3Z" fill="#fff"/>
                      <circle cx="987.6" cy="1029.9" r="5.3" fill="#fff"/>
                      <path d="m1026.5,1029.9c0,2.9-2.4,5.3-5.3,5.3s-5.3-2.4-5.3-5.3,2.4-5.3,5.3-5.3,5.3,2.4,5.3,5.3Z" fill="#fff"/>
                      <path d="m1060,1029.9c0,2.9-2.4,5.3-5.3,5.3s-5.3-2.4-5.3-5.3,2.4-5.3,5.3-5.3,5.3,2.4,5.3,5.3Z" fill="#fff"/>
                      <path d="m1093.5,1029.9c0,2.9-2.4,5.3-5.3,5.3s-5.3-2.4-5.3-5.3,2.4-5.3,5.3-5.3,5.3,2.4,5.3,5.3Z" fill="#fff"/>
                      <path d="m1127.1,1029.9c0,2.9-2.4,5.3-5.3,5.3s-5.3-2.4-5.3-5.3,2.4-5.3,5.3-5.3,5.3,2.4,5.3,5.3Z" fill="#fff"/>
                      <circle cx="1155.3" cy="1029.9" r="5.3" fill="#fff"/>
                    </g>
                    <g>
                      <path d="m925.9,1062.4c0,2.9-2.4,5.3-5.3,5.3s-5.3-2.4-5.3-5.3,2.4-5.3,5.3-5.3,5.3,2.4,5.3,5.3Z" fill="#fff"/>
                      <path d="m959.5,1062.4c0,2.9-2.4,5.3-5.3,5.3s-5.3-2.4-5.3-5.3,2.4-5.3,5.3-5.3,5.3,2.4,5.3,5.3Z" fill="#fff"/>
                      <path d="m993,1062.4c0,2.9-2.4,5.3-5.3,5.3s-5.3-2.4-5.3-5.3,2.4-5.3,5.3-5.3,5.3,2.4,5.3,5.3Z" fill="#fff"/>
                      <path d="m1026.5,1062.4c0,2.9-2.4,5.3-5.3,5.3s-5.3-2.4-5.3-5.3,2.4-5.3,5.3-5.3,5.3,2.4,5.3,5.3Z" fill="#fff"/>
                      <path d="m1060,1062.4c0,2.9-2.4,5.3-5.3,5.3s-5.3-2.4-5.3-5.3,2.4-5.3,5.3-5.3,5.3,2.4,5.3,5.3Z" fill="#fff"/>
                      <path d="m1093.5,1062.4c0,2.9-2.4,5.3-5.3,5.3s-5.3-2.4-5.3-5.3,2.4-5.3,5.3-5.3,5.3,2.4,5.3,5.3Z" fill="#fff"/>
                      <path d="m1127.1,1062.4c0,2.9-2.4,5.3-5.3,5.3s-5.3-2.4-5.3-5.3,2.4-5.3,5.3-5.3,5.3,2.4,5.3,5.3Z" fill="#fff"/>
                      <path d="m1160.6,1062.4c0,2.9-2.4,5.3-5.3,5.3s-5.3-2.4-5.3-5.3,2.4-5.3,5.3-5.3,5.3,2.4,5.3,5.3Z" fill="#fff"/>
                    </g>
                    <g>
                      <path d="m925.9,1094.9c0,2.9-2.4,5.3-5.3,5.3s-5.3-2.4-5.3-5.3,2.4-5.3,5.3-5.3,5.3,2.4,5.3,5.3Z" fill="#fff"/>
                      <path d="m959.5,1094.9c0,2.9-2.4,5.3-5.3,5.3s-5.3-2.4-5.3-5.3,2.4-5.3,5.3-5.3,5.3,2.4,5.3,5.3Z" fill="#fff"/>
                      <path d="m993,1094.9c0,2.9-2.4,5.3-5.3,5.3s-5.3-2.4-5.3-5.3,2.4-5.3,5.3-5.3,5.3,2.4,5.3,5.3Z" fill="#fff"/>
                      <path d="m1026.5,1094.9c0,2.9-2.4,5.3-5.3,5.3s-5.3-2.4-5.3-5.3,2.4-5.3,5.3-5.3,5.3,2.4,5.3,5.3Z" fill="#fff"/>
                      <path d="m1060,1094.9c0,2.9-2.4,5.3-5.3,5.3s-5.3-2.4-5.3-5.3,2.4-5.3,5.3-5.3,5.3,2.4,5.3,5.3Z" fill="#fff"/>
                      <path d="m1093.5,1094.9c0,2.9-2.4,5.3-5.3,5.3s-5.3-2.4-5.3-5.3,2.4-5.3,5.3-5.3,5.3,2.4,5.3,5.3Z" fill="#fff"/>
                      <path d="m1127.1,1094.9c0,2.9-2.4,5.3-5.3,5.3s-5.3-2.4-5.3-5.3,2.4-5.3,5.3-5.3,5.3,2.4,5.3,5.3Z" fill="#fff"/>
                      <path d="m1160.6,1094.9c0,2.9-2.4,5.3-5.3,5.3s-5.3-2.4-5.3-5.3,2.4-5.3,5.3-5.3,5.3,2.4,5.3,5.3Z" fill="#fff"/>
                    </g>
                    <g>
                      <path d="m925.9,1127.4c0,2.9-2.4,5.3-5.3,5.3s-5.3-2.4-5.3-5.3,2.4-5.3,5.3-5.3,5.3,2.4,5.3,5.3Z" fill="#fff"/>
                      <path d="m959.5,1127.4c0,2.9-2.4,5.3-5.3,5.3s-5.3-2.4-5.3-5.3,2.4-5.3,5.3-5.3,5.3,2.4,5.3,5.3Z" fill="#fff"/>
                      <path d="m993,1127.4c0,2.9-2.4,5.3-5.3,5.3s-5.3-2.4-5.3-5.3,2.4-5.3,5.3-5.3,5.3,2.4,5.3,5.3Z" fill="#fff"/>
                      <path d="m1026.5,1127.4c0,2.9-2.4,5.3-5.3,5.3s-5.3-2.4-5.3-5.3,2.4-5.3,5.3-5.3,5.3,2.4,5.3,5.3Z" fill="#fff"/>
                      <path d="m1060,1127.4c0,2.9-2.4,5.3-5.3,5.3s-5.3-2.4-5.3-5.3,2.4-5.3,5.3-5.3,5.3,2.4,5.3,5.3Z" fill="#fff"/>
                      <path d="m1093.5,1127.4c0,2.9-2.4,5.3-5.3,5.3s-5.3-2.4-5.3-5.3,2.4-5.3,5.3-5.3,5.3,2.4,5.3,5.3Z" fill="#fff"/>
                      <path d="m1127.1,1127.4c0,2.9-2.4,5.3-5.3,5.3s-5.3-2.4-5.3-5.3,2.4-5.3,5.3-5.3,5.3,2.4,5.3,5.3Z" fill="#fff"/>
                      <path d="m1160.6,1127.4c0,2.9-2.4,5.3-5.3,5.3s-5.3-2.4-5.3-5.3,2.4-5.3,5.3-5.3,5.3,2.4,5.3,5.3Z" fill="#fff"/>
                    </g>
                  </g>
                  <g>
                    <g>
                      <path d="m664.9,899.8c0,2.9-2.4,5.3-5.3,5.3s-5.3-2.4-5.3-5.3,2.4-5.3,5.3-5.3,5.3,2.4,5.3,5.3Z" fill="#fff"/>
                      <path d="m698.4,899.8c0,2.9-2.4,5.3-5.3,5.3s-5.3-2.4-5.3-5.3,2.4-5.3,5.3-5.3,5.3,2.4,5.3,5.3Z" fill="#fff"/>
                      <path d="m731.9,899.8c0,2.9-2.4,5.3-5.3,5.3s-5.3-2.4-5.3-5.3,2.4-5.3,5.3-5.3,5.3,2.4,5.3,5.3Z" fill="#fff"/>
                      <path d="m765.4,899.8c0,2.9-2.4,5.3-5.3,5.3s-5.3-2.4-5.3-5.3,2.4-5.3,5.3-5.3,5.3,2.4,5.3,5.3Z" fill="#fff"/>
                      <path d="m799,899.8c0,2.9-2.4,5.3-5.3,5.3s-5.3-2.4-5.3-5.3,2.4-5.3,5.3-5.3,5.3,2.4,5.3,5.3Z" fill="#fff"/>
                      <path d="m832.5,899.8c0,2.9-2.4,5.3-5.3,5.3s-5.3-2.4-5.3-5.3,2.4-5.3,5.3-5.3,5.3,2.4,5.3,5.3Z" fill="#fff"/>
                      <path d="m866,899.8c0,2.9-2.4,5.3-5.3,5.3s-5.3-2.4-5.3-5.3,2.4-5.3,5.3-5.3,5.3,2.4,5.3,5.3Z" fill="#fff"/>
                      <path d="m899.5,899.8c0,2.9-2.4,5.3-5.3,5.3s-5.3-2.4-5.3-5.3,2.4-5.3,5.3-5.3,5.3,2.4,5.3,5.3Z" fill="#fff"/>
                    </g>
                    <g>
                      <path d="m664.9,932.4c0,2.9-2.4,5.3-5.3,5.3s-5.3-2.4-5.3-5.3,2.4-5.3,5.3-5.3,5.3,2.4,5.3,5.3Z" fill="#fff"/>
                      <path d="m698.4,932.4c0,2.9-2.4,5.3-5.3,5.3s-5.3-2.4-5.3-5.3,2.4-5.3,5.3-5.3,5.3,2.4,5.3,5.3Z" fill="#fff"/>
                      <path d="m731.9,932.4c0,2.9-2.4,5.3-5.3,5.3s-5.3-2.4-5.3-5.3,2.4-5.3,5.3-5.3,5.3,2.4,5.3,5.3Z" fill="#fff"/>
                      <path d="m765.4,932.4c0,2.9-2.4,5.3-5.3,5.3s-5.3-2.4-5.3-5.3,2.4-5.3,5.3-5.3,5.3,2.4,5.3,5.3Z" fill="#fff"/>
                      <path d="m799,932.4c0,2.9-2.4,5.3-5.3,5.3s-5.3-2.4-5.3-5.3,2.4-5.3,5.3-5.3,5.3,2.4,5.3,5.3Z" fill="#fff"/>
                      <path d="m832.5,932.4c0,2.9-2.4,5.3-5.3,5.3s-5.3-2.4-5.3-5.3,2.4-5.3,5.3-5.3,5.3,2.4,5.3,5.3Z" fill="#fff"/>
                      <path d="m866,932.4c0,2.9-2.4,5.3-5.3,5.3s-5.3-2.4-5.3-5.3,2.4-5.3,5.3-5.3,5.3,2.4,5.3,5.3Z" fill="#fff"/>
                      <path d="m899.5,932.4c0,2.9-2.4,5.3-5.3,5.3s-5.3-2.4-5.3-5.3,2.4-5.3,5.3-5.3,5.3,2.4,5.3,5.3Z" fill="#fff"/>
                    </g>
                    <g>
                      <circle cx="659.5" cy="964.9" r="5.3" fill="#fff"/>
                      <path d="m698.4,964.9c0,2.9-2.4,5.3-5.3,5.3s-5.3-2.4-5.3-5.3,2.4-5.3,5.3-5.3,5.3,2.4,5.3,5.3Z" fill="#fff"/>
                      <path d="m731.9,964.9c0,2.9-2.4,5.3-5.3,5.3s-5.3-2.4-5.3-5.3,2.4-5.3,5.3-5.3,5.3,2.4,5.3,5.3Z" fill="#fff"/>
                      <path d="m765.4,964.9c0,2.9-2.4,5.3-5.3,5.3s-5.3-2.4-5.3-5.3,2.4-5.3,5.3-5.3,5.3,2.4,5.3,5.3Z" fill="#fff"/>
                      <path d="m799,964.9c0,2.9-2.4,5.3-5.3,5.3s-5.3-2.4-5.3-5.3,2.4-5.3,5.3-5.3,5.3,2.4,5.3,5.3Z" fill="#fff"/>
                      <path d="m832.5,964.9c0,2.9-2.4,5.3-5.3,5.3s-5.3-2.4-5.3-5.3,2.4-5.3,5.3-5.3,5.3,2.4,5.3,5.3Z" fill="#fff"/>
                      <path d="m866,964.9c0,2.9-2.4,5.3-5.3,5.3s-5.3-2.4-5.3-5.3,2.4-5.3,5.3-5.3,5.3,2.4,5.3,5.3Z" fill="#fff"/>
                      <path d="m899.5,964.9c0,2.9-2.4,5.3-5.3,5.3s-5.3-2.4-5.3-5.3,2.4-5.3,5.3-5.3,5.3,2.4,5.3,5.3Z" fill="#fff"/>
                    </g>
                    <g>
                      <path d="m664.9,997.4c0,2.9-2.4,5.3-5.3,5.3s-5.3-2.4-5.3-5.3,2.4-5.3,5.3-5.3,5.3,2.4,5.3,5.3Z" fill="#fff"/>
                      <path d="m698.4,997.4c0,2.9-2.4,5.3-5.3,5.3s-5.3-2.4-5.3-5.3,2.4-5.3,5.3-5.3,5.3,2.4,5.3,5.3Z" fill="#fff"/>
                      <path d="m731.9,997.4c0,2.9-2.4,5.3-5.3,5.3s-5.3-2.4-5.3-5.3,2.4-5.3,5.3-5.3,5.3,2.4,5.3,5.3Z" fill="#fff"/>
                      <path d="m765.4,997.4c0,2.9-2.4,5.3-5.3,5.3s-5.3-2.4-5.3-5.3,2.4-5.3,5.3-5.3,5.3,2.4,5.3,5.3Z" fill="#fff"/>
                      <path d="m799,997.4c0,2.9-2.4,5.3-5.3,5.3s-5.3-2.4-5.3-5.3,2.4-5.3,5.3-5.3,5.3,2.4,5.3,5.3Z" fill="#fff"/>
                      <path d="m832.5,997.4c0,2.9-2.4,5.3-5.3,5.3s-5.3-2.4-5.3-5.3,2.4-5.3,5.3-5.3,5.3,2.4,5.3,5.3Z" fill="#fff"/>
                      <path d="m866,997.4c0,2.9-2.4,5.3-5.3,5.3s-5.3-2.4-5.3-5.3,2.4-5.3,5.3-5.3,5.3,2.4,5.3,5.3Z" fill="#fff"/>
                      <path d="m899.5,997.4c0,2.9-2.4,5.3-5.3,5.3s-5.3-2.4-5.3-5.3,2.4-5.3,5.3-5.3,5.3,2.4,5.3,5.3Z" fill="#fff"/>
                    </g>
                    <g>
                      <circle cx="659.5" cy="1029.9" r="5.3" fill="#fff"/>
                      <path d="m698.4,1029.9c0,2.9-2.4,5.3-5.3,5.3s-5.3-2.4-5.3-5.3,2.4-5.3,5.3-5.3,5.3,2.4,5.3,5.3Z" fill="#fff"/>
                      <path d="m731.9,1029.9c0,2.9-2.4,5.3-5.3,5.3s-5.3-2.4-5.3-5.3,2.4-5.3,5.3-5.3,5.3,2.4,5.3,5.3Z" fill="#fff"/>
                      <path d="m765.4,1029.9c0,2.9-2.4,5.3-5.3,5.3s-5.3-2.4-5.3-5.3,2.4-5.3,5.3-5.3,5.3,2.4,5.3,5.3Z" fill="#fff"/>
                      <path d="m799,1029.9c0,2.9-2.4,5.3-5.3,5.3s-5.3-2.4-5.3-5.3,2.4-5.3,5.3-5.3,5.3,2.4,5.3,5.3Z" fill="#fff"/>
                      <path d="m832.5,1029.9c0,2.9-2.4,5.3-5.3,5.3s-5.3-2.4-5.3-5.3,2.4-5.3,5.3-5.3,5.3,2.4,5.3,5.3Z" fill="#fff"/>
                      <path d="m866,1029.9c0,2.9-2.4,5.3-5.3,5.3s-5.3-2.4-5.3-5.3,2.4-5.3,5.3-5.3,5.3,2.4,5.3,5.3Z" fill="#fff"/>
                      <path d="m899.5,1029.9c0,2.9-2.4,5.3-5.3,5.3s-5.3-2.4-5.3-5.3,2.4-5.3,5.3-5.3,5.3,2.4,5.3,5.3Z" fill="#fff"/>
                    </g>
                    <g>
                      <path d="m664.9,1062.4c0,2.9-2.4,5.3-5.3,5.3s-5.3-2.4-5.3-5.3,2.4-5.3,5.3-5.3,5.3,2.4,5.3,5.3Z" fill="#fff"/>
                      <path d="m698.4,1062.4c0,2.9-2.4,5.3-5.3,5.3s-5.3-2.4-5.3-5.3,2.4-5.3,5.3-5.3,5.3,2.4,5.3,5.3Z" fill="#fff"/>
                      <path d="m731.9,1062.4c0,2.9-2.4,5.3-5.3,5.3s-5.3-2.4-5.3-5.3,2.4-5.3,5.3-5.3,5.3,2.4,5.3,5.3Z" fill="#fff"/>
                      <path d="m765.4,1062.4c0,2.9-2.4,5.3-5.3,5.3s-5.3-2.4-5.3-5.3,2.4-5.3,5.3-5.3,5.3,2.4,5.3,5.3Z" fill="#fff"/>
                      <path d="m799,1062.4c0,2.9-2.4,5.3-5.3,5.3s-5.3-2.4-5.3-5.3,2.4-5.3,5.3-5.3,5.3,2.4,5.3,5.3Z" fill="#fff"/>
                      <path d="m832.5,1062.4c0,2.9-2.4,5.3-5.3,5.3s-5.3-2.4-5.3-5.3,2.4-5.3,5.3-5.3,5.3,2.4,5.3,5.3Z" fill="#fff"/>
                      <path d="m866,1062.4c0,2.9-2.4,5.3-5.3,5.3s-5.3-2.4-5.3-5.3,2.4-5.3,5.3-5.3,5.3,2.4,5.3,5.3Z" fill="#fff"/>
                      <path d="m899.5,1062.4c0,2.9-2.4,5.3-5.3,5.3s-5.3-2.4-5.3-5.3,2.4-5.3,5.3-5.3,5.3,2.4,5.3,5.3Z" fill="#fff"/>
                    </g>
                    <g>
                      <path d="m664.9,1094.9c0,2.9-2.4,5.3-5.3,5.3s-5.3-2.4-5.3-5.3,2.4-5.3,5.3-5.3,5.3,2.4,5.3,5.3Z" fill="#fff"/>
                      <path d="m698.4,1094.9c0,2.9-2.4,5.3-5.3,5.3s-5.3-2.4-5.3-5.3,2.4-5.3,5.3-5.3,5.3,2.4,5.3,5.3Z" fill="#fff"/>
                      <path d="m731.9,1094.9c0,2.9-2.4,5.3-5.3,5.3s-5.3-2.4-5.3-5.3,2.4-5.3,5.3-5.3,5.3,2.4,5.3,5.3Z" fill="#fff"/>
                      <path d="m765.4,1094.9c0,2.9-2.4,5.3-5.3,5.3s-5.3-2.4-5.3-5.3,2.4-5.3,5.3-5.3,5.3,2.4,5.3,5.3Z" fill="#fff"/>
                      <path d="m799,1094.9c0,2.9-2.4,5.3-5.3,5.3s-5.3-2.4-5.3-5.3,2.4-5.3,5.3-5.3,5.3,2.4,5.3,5.3Z" fill="#fff"/>
                      <path d="m832.5,1094.9c0,2.9-2.4,5.3-5.3,5.3s-5.3-2.4-5.3-5.3,2.4-5.3,5.3-5.3,5.3,2.4,5.3,5.3Z" fill="#fff"/>
                      <path d="m866,1094.9c0,2.9-2.4,5.3-5.3,5.3s-5.3-2.4-5.3-5.3,2.4-5.3,5.3-5.3,5.3,2.4,5.3,5.3Z" fill="#fff"/>
                      <path d="m899.5,1094.9c0,2.9-2.4,5.3-5.3,5.3s-5.3-2.4-5.3-5.3,2.4-5.3,5.3-5.3,5.3,2.4,5.3,5.3Z" fill="#fff"/>
                    </g>
                    <g>
                      <path d="m664.9,1127.4c0,2.9-2.4,5.3-5.3,5.3s-5.3-2.4-5.3-5.3,2.4-5.3,5.3-5.3,5.3,2.4,5.3,5.3Z" fill="#fff"/>
                      <path d="m698.4,1127.4c0,2.9-2.4,5.3-5.3,5.3s-5.3-2.4-5.3-5.3,2.4-5.3,5.3-5.3,5.3,2.4,5.3,5.3Z" fill="#fff"/>
                      <path d="m731.9,1127.4c0,2.9-2.4,5.3-5.3,5.3s-5.3-2.4-5.3-5.3,2.4-5.3,5.3-5.3,5.3,2.4,5.3,5.3Z" fill="#fff"/>
                      <path d="m765.4,1127.4c0,2.9-2.4,5.3-5.3,5.3s-5.3-2.4-5.3-5.3,2.4-5.3,5.3-5.3,5.3,2.4,5.3,5.3Z" fill="#fff"/>
                      <path d="m799,1127.4c0,2.9-2.4,5.3-5.3,5.3s-5.3-2.4-5.3-5.3,2.4-5.3,5.3-5.3,5.3,2.4,5.3,5.3Z" fill="#fff"/>
                      <path d="m832.5,1127.4c0,2.9-2.4,5.3-5.3,5.3s-5.3-2.4-5.3-5.3,2.4-5.3,5.3-5.3,5.3,2.4,5.3,5.3Z" fill="#fff"/>
                      <path d="m866,1127.4c0,2.9-2.4,5.3-5.3,5.3s-5.3-2.4-5.3-5.3,2.4-5.3,5.3-5.3,5.3,2.4,5.3,5.3Z" fill="#fff"/>
                      <path d="m899.5,1127.4c0,2.9-2.4,5.3-5.3,5.3s-5.3-2.4-5.3-5.3,2.4-5.3,5.3-5.3,5.3,2.4,5.3,5.3Z" fill="#fff"/>
                    </g>
                  </g>
                  <g>
                    <g>
                      <path d="m925.9,1153.8c0,2.9-2.4,5.3-5.3,5.3s-5.3-2.4-5.3-5.3,2.4-5.3,5.3-5.3,5.3,2.4,5.3,5.3Z" fill="#fff"/>
                      <path d="m959.5,1153.8c0,2.9-2.4,5.3-5.3,5.3s-5.3-2.4-5.3-5.3,2.4-5.3,5.3-5.3,5.3,2.4,5.3,5.3Z" fill="#fff"/>
                      <path d="m993,1153.8c0,2.9-2.4,5.3-5.3,5.3s-5.3-2.4-5.3-5.3,2.4-5.3,5.3-5.3,5.3,2.4,5.3,5.3Z" fill="#fff"/>
                      <path d="m1026.5,1153.8c0,2.9-2.4,5.3-5.3,5.3s-5.3-2.4-5.3-5.3,2.4-5.3,5.3-5.3,5.3,2.4,5.3,5.3Z" fill="#fff"/>
                      <path d="m1060,1153.8c0,2.9-2.4,5.3-5.3,5.3s-5.3-2.4-5.3-5.3,2.4-5.3,5.3-5.3,5.3,2.4,5.3,5.3Z" fill="#fff"/>
                      <path d="m1093.5,1153.8c0,2.9-2.4,5.3-5.3,5.3s-5.3-2.4-5.3-5.3,2.4-5.3,5.3-5.3,5.3,2.4,5.3,5.3Z" fill="#fff"/>
                      <path d="m1127.1,1153.8c0,2.9-2.4,5.3-5.3,5.3s-5.3-2.4-5.3-5.3,2.4-5.3,5.3-5.3,5.3,2.4,5.3,5.3Z" fill="#fff"/>
                      <path d="m1160.6,1153.8c0,2.9-2.4,5.3-5.3,5.3s-5.3-2.4-5.3-5.3,2.4-5.3,5.3-5.3,5.3,2.4,5.3,5.3Z" fill="#fff"/>
                    </g>
                    <g>
                      <path d="m925.9,1186.3c0,2.9-2.4,5.3-5.3,5.3s-5.3-2.4-5.3-5.3,2.4-5.3,5.3-5.3,5.3,2.4,5.3,5.3Z" fill="#fff"/>
                      <path d="m959.5,1186.3c0,2.9-2.4,5.3-5.3,5.3s-5.3-2.4-5.3-5.3,2.4-5.3,5.3-5.3,5.3,2.4,5.3,5.3Z" fill="#fff"/>
                      <path d="m993,1186.3c0,2.9-2.4,5.3-5.3,5.3s-5.3-2.4-5.3-5.3,2.4-5.3,5.3-5.3,5.3,2.4,5.3,5.3Z" fill="#fff"/>
                      <path d="m1026.5,1186.3c0,2.9-2.4,5.3-5.3,5.3s-5.3-2.4-5.3-5.3,2.4-5.3,5.3-5.3,5.3,2.4,5.3,5.3Z" fill="#fff"/>
                      <path d="m1060,1186.3c0,2.9-2.4,5.3-5.3,5.3s-5.3-2.4-5.3-5.3,2.4-5.3,5.3-5.3,5.3,2.4,5.3,5.3Z" fill="#fff"/>
                      <path d="m1093.5,1186.3c0,2.9-2.4,5.3-5.3,5.3s-5.3-2.4-5.3-5.3,2.4-5.3,5.3-5.3,5.3,2.4,5.3,5.3Z" fill="#fff"/>
                      <path d="m1127.1,1186.3c0,2.9-2.4,5.3-5.3,5.3s-5.3-2.4-5.3-5.3,2.4-5.3,5.3-5.3,5.3,2.4,5.3,5.3Z" fill="#fff"/>
                      <path d="m1160.6,1186.3c0,2.9-2.4,5.3-5.3,5.3s-5.3-2.4-5.3-5.3,2.4-5.3,5.3-5.3,5.3,2.4,5.3,5.3Z" fill="#fff"/>
                    </g>
                    <g>
                      <path d="m925.9,1218.8c0,2.9-2.4,5.3-5.3,5.3s-5.3-2.4-5.3-5.3,2.4-5.3,5.3-5.3,5.3,2.4,5.3,5.3Z" fill="#fff"/>
                      <path d="m959.5,1218.8c0,2.9-2.4,5.3-5.3,5.3s-5.3-2.4-5.3-5.3,2.4-5.3,5.3-5.3,5.3,2.4,5.3,5.3Z" fill="#fff"/>
                      <path d="m993,1218.8c0,2.9-2.4,5.3-5.3,5.3s-5.3-2.4-5.3-5.3,2.4-5.3,5.3-5.3,5.3,2.4,5.3,5.3Z" fill="#fff"/>
                      <path d="m1026.5,1218.8c0,2.9-2.4,5.3-5.3,5.3s-5.3-2.4-5.3-5.3,2.4-5.3,5.3-5.3,5.3,2.4,5.3,5.3Z" fill="#fff"/>
                      <path d="m1060,1218.8c0,2.9-2.4,5.3-5.3,5.3s-5.3-2.4-5.3-5.3,2.4-5.3,5.3-5.3,5.3,2.4,5.3,5.3Z" fill="#fff"/>
                      <path d="m1093.5,1218.8c0,2.9-2.4,5.3-5.3,5.3s-5.3-2.4-5.3-5.3,2.4-5.3,5.3-5.3,5.3,2.4,5.3,5.3Z" fill="#fff"/>
                      <path d="m1127.1,1218.8c0,2.9-2.4,5.3-5.3,5.3s-5.3-2.4-5.3-5.3,2.4-5.3,5.3-5.3,5.3,2.4,5.3,5.3Z" fill="#fff"/>
                      <path d="m1160.6,1218.8c0,2.9-2.4,5.3-5.3,5.3s-5.3-2.4-5.3-5.3,2.4-5.3,5.3-5.3,5.3,2.4,5.3,5.3Z" fill="#fff"/>
                    </g>
                    <g>
                      <path d="m925.9,1251.3c0,2.9-2.4,5.3-5.3,5.3s-5.3-2.4-5.3-5.3,2.4-5.3,5.3-5.3,5.3,2.4,5.3,5.3Z" fill="#fff"/>
                      <path d="m959.5,1251.3c0,2.9-2.4,5.3-5.3,5.3s-5.3-2.4-5.3-5.3,2.4-5.3,5.3-5.3,5.3,2.4,5.3,5.3Z" fill="#fff"/>
                      <path d="m993,1251.3c0,2.9-2.4,5.3-5.3,5.3s-5.3-2.4-5.3-5.3,2.4-5.3,5.3-5.3,5.3,2.4,5.3,5.3Z" fill="#fff"/>
                      <path d="m1026.5,1251.3c0,2.9-2.4,5.3-5.3,5.3s-5.3-2.4-5.3-5.3,2.4-5.3,5.3-5.3,5.3,2.4,5.3,5.3Z" fill="#fff"/>
                      <path d="m1060,1251.3c0,2.9-2.4,5.3-5.3,5.3s-5.3-2.4-5.3-5.3,2.4-5.3,5.3-5.3,5.3,2.4,5.3,5.3Z" fill="#fff"/>
                      <path d="m1093.5,1251.3c0,2.9-2.4,5.3-5.3,5.3s-5.3-2.4-5.3-5.3,2.4-5.3,5.3-5.3,5.3,2.4,5.3,5.3Z" fill="#fff"/>
                      <path d="m1127.1,1251.3c0,2.9-2.4,5.3-5.3,5.3s-5.3-2.4-5.3-5.3,2.4-5.3,5.3-5.3,5.3,2.4,5.3,5.3Z" fill="#fff"/>
                      <path d="m1160.6,1251.3c0,2.9-2.4,5.3-5.3,5.3s-5.3-2.4-5.3-5.3,2.4-5.3,5.3-5.3,5.3,2.4,5.3,5.3Z" fill="#fff"/>
                    </g>
                    <g>
                      <path d="m925.9,1283.8c0,2.9-2.4,5.3-5.3,5.3s-5.3-2.4-5.3-5.3,2.4-5.3,5.3-5.3,5.3,2.4,5.3,5.3Z" fill="#fff"/>
                      <path d="m959.5,1283.8c0,2.9-2.4,5.3-5.3,5.3s-5.3-2.4-5.3-5.3,2.4-5.3,5.3-5.3,5.3,2.4,5.3,5.3Z" fill="#fff"/>
                      <path d="m993,1283.8c0,2.9-2.4,5.3-5.3,5.3s-5.3-2.4-5.3-5.3,2.4-5.3,5.3-5.3,5.3,2.4,5.3,5.3Z" fill="#fff"/>
                      <path d="m1026.5,1283.8c0,2.9-2.4,5.3-5.3,5.3s-5.3-2.4-5.3-5.3,2.4-5.3,5.3-5.3,5.3,2.4,5.3,5.3Z" fill="#fff"/>
                      <path d="m1060,1283.8c0,2.9-2.4,5.3-5.3,5.3s-5.3-2.4-5.3-5.3,2.4-5.3,5.3-5.3,5.3,2.4,5.3,5.3Z" fill="#fff"/>
                      <path d="m1093.5,1283.8c0,2.9-2.4,5.3-5.3,5.3s-5.3-2.4-5.3-5.3,2.4-5.3,5.3-5.3,5.3,2.4,5.3,5.3Z" fill="#fff"/>
                      <path d="m1127.1,1283.8c0,2.9-2.4,5.3-5.3,5.3s-5.3-2.4-5.3-5.3,2.4-5.3,5.3-5.3,5.3,2.4,5.3,5.3Z" fill="#fff"/>
                      <path d="m1160.6,1283.8c0,2.9-2.4,5.3-5.3,5.3s-5.3-2.4-5.3-5.3,2.4-5.3,5.3-5.3,5.3,2.4,5.3,5.3Z" fill="#fff"/>
                    </g>
                  </g>
                  <g>
                    <g>
                      <path d="m664.9,1153.8c0,2.9-2.4,5.3-5.3,5.3s-5.3-2.4-5.3-5.3,2.4-5.3,5.3-5.3,5.3,2.4,5.3,5.3Z" fill="#fff"/>
                      <path d="m698.4,1153.8c0,2.9-2.4,5.3-5.3,5.3s-5.3-2.4-5.3-5.3,2.4-5.3,5.3-5.3,5.3,2.4,5.3,5.3Z" fill="#fff"/>
                      <path d="m731.9,1153.8c0,2.9-2.4,5.3-5.3,5.3s-5.3-2.4-5.3-5.3,2.4-5.3,5.3-5.3,5.3,2.4,5.3,5.3Z" fill="#fff"/>
                      <path d="m765.4,1153.8c0,2.9-2.4,5.3-5.3,5.3s-5.3-2.4-5.3-5.3,2.4-5.3,5.3-5.3,5.3,2.4,5.3,5.3Z" fill="#fff"/>
                      <path d="m799,1153.8c0,2.9-2.4,5.3-5.3,5.3s-5.3-2.4-5.3-5.3,2.4-5.3,5.3-5.3,5.3,2.4,5.3,5.3Z" fill="#fff"/>
                      <path d="m832.5,1153.8c0,2.9-2.4,5.3-5.3,5.3s-5.3-2.4-5.3-5.3,2.4-5.3,5.3-5.3,5.3,2.4,5.3,5.3Z" fill="#fff"/>
                      <path d="m866,1153.8c0,2.9-2.4,5.3-5.3,5.3s-5.3-2.4-5.3-5.3,2.4-5.3,5.3-5.3,5.3,2.4,5.3,5.3Z" fill="#fff"/>
                      <path d="m899.5,1153.8c0,2.9-2.4,5.3-5.3,5.3s-5.3-2.4-5.3-5.3,2.4-5.3,5.3-5.3,5.3,2.4,5.3,5.3Z" fill="#fff"/>
                    </g>
                    <g>
                      <path d="m664.9,1186.3c0,2.9-2.4,5.3-5.3,5.3s-5.3-2.4-5.3-5.3,2.4-5.3,5.3-5.3,5.3,2.4,5.3,5.3Z" fill="#fff"/>
                      <path d="m698.4,1186.3c0,2.9-2.4,5.3-5.3,5.3s-5.3-2.4-5.3-5.3,2.4-5.3,5.3-5.3,5.3,2.4,5.3,5.3Z" fill="#fff"/>
                      <path d="m731.9,1186.3c0,2.9-2.4,5.3-5.3,5.3s-5.3-2.4-5.3-5.3,2.4-5.3,5.3-5.3,5.3,2.4,5.3,5.3Z" fill="#fff"/>
                      <path d="m765.4,1186.3c0,2.9-2.4,5.3-5.3,5.3s-5.3-2.4-5.3-5.3,2.4-5.3,5.3-5.3,5.3,2.4,5.3,5.3Z" fill="#fff"/>
                      <path d="m799,1186.3c0,2.9-2.4,5.3-5.3,5.3s-5.3-2.4-5.3-5.3,2.4-5.3,5.3-5.3,5.3,2.4,5.3,5.3Z" fill="#fff"/>
                      <path d="m832.5,1186.3c0,2.9-2.4,5.3-5.3,5.3s-5.3-2.4-5.3-5.3,2.4-5.3,5.3-5.3,5.3,2.4,5.3,5.3Z" fill="#fff"/>
                      <path d="m866,1186.3c0,2.9-2.4,5.3-5.3,5.3s-5.3-2.4-5.3-5.3,2.4-5.3,5.3-5.3,5.3,2.4,5.3,5.3Z" fill="#fff"/>
                      <path d="m899.5,1186.3c0,2.9-2.4,5.3-5.3,5.3s-5.3-2.4-5.3-5.3,2.4-5.3,5.3-5.3,5.3,2.4,5.3,5.3Z" fill="#fff"/>
                    </g>
                    <g>
                      <path d="m664.9,1218.8c0,2.9-2.4,5.3-5.3,5.3s-5.3-2.4-5.3-5.3,2.4-5.3,5.3-5.3,5.3,2.4,5.3,5.3Z" fill="#fff"/>
                      <path d="m698.4,1218.8c0,2.9-2.4,5.3-5.3,5.3s-5.3-2.4-5.3-5.3,2.4-5.3,5.3-5.3,5.3,2.4,5.3,5.3Z" fill="#fff"/>
                      <path d="m731.9,1218.8c0,2.9-2.4,5.3-5.3,5.3s-5.3-2.4-5.3-5.3,2.4-5.3,5.3-5.3,5.3,2.4,5.3,5.3Z" fill="#fff"/>
                      <path d="m765.4,1218.8c0,2.9-2.4,5.3-5.3,5.3s-5.3-2.4-5.3-5.3,2.4-5.3,5.3-5.3,5.3,2.4,5.3,5.3Z" fill="#fff"/>
                      <path d="m799,1218.8c0,2.9-2.4,5.3-5.3,5.3s-5.3-2.4-5.3-5.3,2.4-5.3,5.3-5.3,5.3,2.4,5.3,5.3Z" fill="#fff"/>
                      <path d="m832.5,1218.8c0,2.9-2.4,5.3-5.3,5.3s-5.3-2.4-5.3-5.3,2.4-5.3,5.3-5.3,5.3,2.4,5.3,5.3Z" fill="#fff"/>
                      <path d="m866,1218.8c0,2.9-2.4,5.3-5.3,5.3s-5.3-2.4-5.3-5.3,2.4-5.3,5.3-5.3,5.3,2.4,5.3,5.3Z" fill="#fff"/>
                      <path d="m899.5,1218.8c0,2.9-2.4,5.3-5.3,5.3s-5.3-2.4-5.3-5.3,2.4-5.3,5.3-5.3,5.3,2.4,5.3,5.3Z" fill="#fff"/>
                    </g>
                    <g>
                      <path d="m664.9,1251.3c0,2.9-2.4,5.3-5.3,5.3s-5.3-2.4-5.3-5.3,2.4-5.3,5.3-5.3,5.3,2.4,5.3,5.3Z" fill="#fff"/>
                      <path d="m698.4,1251.3c0,2.9-2.4,5.3-5.3,5.3s-5.3-2.4-5.3-5.3,2.4-5.3,5.3-5.3,5.3,2.4,5.3,5.3Z" fill="#fff"/>
                      <path d="m731.9,1251.3c0,2.9-2.4,5.3-5.3,5.3s-5.3-2.4-5.3-5.3,2.4-5.3,5.3-5.3,5.3,2.4,5.3,5.3Z" fill="#fff"/>
                      <path d="m765.4,1251.3c0,2.9-2.4,5.3-5.3,5.3s-5.3-2.4-5.3-5.3,2.4-5.3,5.3-5.3,5.3,2.4,5.3,5.3Z" fill="#fff"/>
                      <path d="m799,1251.3c0,2.9-2.4,5.3-5.3,5.3s-5.3-2.4-5.3-5.3,2.4-5.3,5.3-5.3,5.3,2.4,5.3,5.3Z" fill="#fff"/>
                      <path d="m832.5,1251.3c0,2.9-2.4,5.3-5.3,5.3s-5.3-2.4-5.3-5.3,2.4-5.3,5.3-5.3,5.3,2.4,5.3,5.3Z" fill="#fff"/>
                      <path d="m866,1251.3c0,2.9-2.4,5.3-5.3,5.3s-5.3-2.4-5.3-5.3,2.4-5.3,5.3-5.3,5.3,2.4,5.3,5.3Z" fill="#fff"/>
                      <path d="m899.5,1251.3c0,2.9-2.4,5.3-5.3,5.3s-5.3-2.4-5.3-5.3,2.4-5.3,5.3-5.3,5.3,2.4,5.3,5.3Z" fill="#fff"/>
                    </g>
                    <g>
                      <path d="m664.9,1283.8c0,2.9-2.4,5.3-5.3,5.3s-5.3-2.4-5.3-5.3,2.4-5.3,5.3-5.3,5.3,2.4,5.3,5.3Z" fill="#fff"/>
                      <path d="m698.4,1283.8c0,2.9-2.4,5.3-5.3,5.3s-5.3-2.4-5.3-5.3,2.4-5.3,5.3-5.3,5.3,2.4,5.3,5.3Z" fill="#fff"/>
                      <path d="m731.9,1283.8c0,2.9-2.4,5.3-5.3,5.3s-5.3-2.4-5.3-5.3,2.4-5.3,5.3-5.3,5.3,2.4,5.3,5.3Z" fill="#fff"/>
                      <path d="m765.4,1283.8c0,2.9-2.4,5.3-5.3,5.3s-5.3-2.4-5.3-5.3,2.4-5.3,5.3-5.3,5.3,2.4,5.3,5.3Z" fill="#fff"/>
                      <path d="m799,1283.8c0,2.9-2.4,5.3-5.3,5.3s-5.3-2.4-5.3-5.3,2.4-5.3,5.3-5.3,5.3,2.4,5.3,5.3Z" fill="#fff"/>
                      <path d="m832.5,1283.8c0,2.9-2.4,5.3-5.3,5.3s-5.3-2.4-5.3-5.3,2.4-5.3,5.3-5.3,5.3,2.4,5.3,5.3Z" fill="#fff"/>
                      <path d="m866,1283.8c0,2.9-2.4,5.3-5.3,5.3s-5.3-2.4-5.3-5.3,2.4-5.3,5.3-5.3,5.3,2.4,5.3,5.3Z" fill="#fff"/>
                      <path d="m899.5,1283.8c0,2.9-2.4,5.3-5.3,5.3s-5.3-2.4-5.3-5.3,2.4-5.3,5.3-5.3,5.3,2.4,5.3,5.3Z" fill="#fff"/>
                    </g>
                  </g>
                </g>
              </g>
            </g>
          </g>
        </g>
      </g>
    </g>
  </g>
</svg>