<svg id="svg2" xmlns="http://www.w3.org/2000/svg" width="281.9" height="109.36" viewBox="0 0 281.9 109.36">
  <defs>
    <style>
      .cls-1 {
        fill: #ffdc50;
        stroke-width: 6px;
        opacity: 0.87;
        isolation: isolate;
      }

      .cls-1, .cls-2 {
        stroke: #a80;
        stroke-linecap: square;
        stroke-linejoin: bevel;
      }

      .cls-2 {
        fill: #ffd42a;
        fill-opacity: 0.82;
        stroke-width: 7.67px;
      }

      .cls-3, .cls-4 {
        fill: #fff;
      }

      .cls-4 {
        fill-opacity: 0.29;
      }
    </style>
  </defs>
  <title>logo</title>
  <g id="layer6">
    <path id="path3912" class="cls-1" d="M264,71c0,16.49-49,32.67-116.55,32.67S25.05,88.44,25.05,72,82.78,43,150.33,43,264,54.52,264,71Z"/>
    <path id="path3934" class="cls-2" d="M276.9,56.45c0,23.81-55.5,47.18-132,47.18S6.3,81.6,6.3,57.8c0-12.45,35.35-14,63.32-21.49C95.18,29.45,94.19,5.75,130.71,5.75c44.35,0,109.37,12.57,132.2,28.91C272.4,41.42,273.61,46.24,276.9,56.45Z"/>
    <path id="path3937" d="M196.94,65.88c0,6.44-6.5,11.68-14.55,11.69S167.8,72.36,167.8,65.92v0c0-6.44,6.5-11.67,14.55-11.68s14.59,5.21,14.59,11.65Z"/>
    <path id="path3939" d="M237.77,65.41c0,6.44-6.5,11.67-14.55,11.69s-14.59-5.21-14.59-11.65v0c0-6.44,6.5-11.67,14.55-11.68s14.59,5.2,14.59,11.65Z"/>
    <path id="path3941" class="cls-3" d="M191.12,65.88c0,4.39-3.25,8-7.26,8s-7.29-3.53-7.29-7.92v0c0-4.38,3.25-7.94,7.26-7.94s7.29,3.52,7.29,7.92Z"/>
    <path id="path3943" class="cls-3" d="M230.48,64.48c0,4.38-3.25,7.94-7.26,7.94s-7.3-3.52-7.3-7.92v0c0-4.39,3.25-7.94,7.26-7.94s7.3,3.52,7.3,7.91Z"/>
    <path id="path3945" class="cls-4" d="M132,13c-20.65.73-28.7,10.28-17,15,14.18,3.53,29.45-1.18,43.78-2,15-2.26,13.19-11-4.42-11.53C147.12,13.73,139.75,12.81,132,13ZM59.53,45.87c-29.45,2.71-41.74,15.05-27,23.3C40,76,51.63,83.47,73.59,86.51c17.54.25,22.76-7,16.41-11.13-4.69-8.83-8.2-17.86-13.19-26.56A42,42,0,0,0,59.53,45.87Z"/>
  </g>
</svg>
